# Blender v2.92.0 OBJ File: ''
# www.blender.org
mtllib m_hbu011.mtl
o m_a2.001
v 27.144400 27.962498 12.219005
v 27.144400 29.807697 12.219005
v 27.138000 27.962500 5.465305
v 27.138000 29.807699 5.465305
v 28.757999 25.615898 10.617504
v 28.757999 25.615898 7.448905
v 28.757999 3.981098 10.617501
v 28.757999 3.981099 7.448901
v 27.809799 26.662498 6.276604
v 27.809799 26.662498 11.696304
v 27.809799 29.101599 6.276605
v 27.809799 29.101599 11.696304
v 27.809799 26.662498 11.696304
v 27.809799 26.662498 6.276604
v 28.654800 24.574598 10.861904
v 28.654800 24.574598 7.111004
v 28.473000 2.519398 11.989200
v 28.757999 3.981098 10.617501
v 27.746500 2.519398 10.989700
v 28.473000 2.519398 11.989200
v 27.746500 2.519398 10.989700
v 28.473000 -0.000002 11.989200
v 27.746500 -0.000002 10.989700
v 27.746500 2.519399 7.076601
v 27.746500 2.519398 10.989700
v 28.757999 3.981099 7.448901
v 28.757999 3.981098 10.617501
v 27.746500 2.519398 10.989700
v 27.746500 2.519399 7.076601
v 27.746500 -0.000002 10.989700
v 27.746500 -0.000001 7.076600
v 30.000000 29.807697 12.219005
v 30.000000 29.807699 5.445105
v 27.144400 29.807697 12.219005
v 27.138000 29.807699 5.465305
v 30.000000 27.962498 12.219005
v 30.000000 29.807697 12.219005
v 27.144400 27.962498 12.219005
v 27.144400 29.807697 12.219005
v 30.000000 29.101599 11.696304
v 27.809799 29.101599 11.696304
v 30.000000 26.662498 11.696304
v 27.809799 26.662498 11.696304
v 30.000000 24.574598 10.861904
v 28.654800 24.574598 10.861904
v 30.000000 25.615898 10.617504
v 28.757999 25.615898 10.617504
v 30.000000 3.990298 10.614201
v 28.757999 3.981098 10.617501
v 30.000000 2.519398 11.989200
v 30.000000 3.990298 10.614201
v 28.473000 2.519398 11.989200
v 28.757999 3.981098 10.617501
v 28.473000 -0.000002 11.989200
v 30.000000 -0.000002 11.989200
v 28.473000 2.519398 11.989200
v 30.000000 2.519398 11.989200
v 7.500000 -0.000001 8.336200
v 15.000000 -0.000001 8.336200
v 7.500000 22.499998 8.439604
v 15.000000 22.499998 8.439604
v 15.000000 29.999998 9.795705
v 7.500000 29.999998 9.795705
v 15.000000 27.499998 9.795705
v 7.500000 27.499998 9.795705
v 15.000000 22.499998 8.439604
v 7.500000 22.499998 8.439604
v 7.500000 22.499998 8.439604
v 0.000000 22.499998 8.439604
v 7.500000 -0.000001 8.336200
v 0.000000 -0.000001 8.336200
v 0.000000 29.999998 9.795705
v 0.000000 27.499998 9.795705
v 7.500000 29.999998 9.795705
v 7.500000 27.499998 9.795705
v 0.000000 22.499998 8.439604
v 7.500000 22.499998 8.439604
v 30.000000 29.999998 9.795705
v 22.500000 29.999998 9.795705
v 30.000000 27.499998 9.795705
v 22.500000 27.499998 9.795705
v 30.000000 29.999998 9.795705
v 30.000000 30.000000 0.000005
v 22.500000 29.999998 9.795705
v 15.000000 29.999998 9.795705
v 22.500000 30.000000 0.000005
v 7.500000 29.999998 9.795705
v 7.500000 30.000000 0.000005
v 0.000000 30.000000 0.000005
v 0.000000 29.999998 9.795705
v 30.000000 22.499998 8.439604
v 22.500000 22.499998 8.439604
v 15.000000 -0.000001 8.336200
v 22.500000 -0.000001 8.336200
v 15.000000 22.499998 8.439604
v 22.500000 22.499998 8.439604
v 30.000000 -0.000001 8.336200
v 30.000000 22.499998 8.439604
v 15.000000 29.999998 9.795705
v 15.000000 27.499998 9.795705
v 22.500000 29.999998 9.795705
v 22.500000 27.499998 9.795705
v 15.000000 22.499998 8.439604
v 22.500000 22.499998 8.439604
v 16.275400 -0.001501 7.665200
v 16.275400 1.917099 7.665201
v 16.275400 -0.001502 9.548600
v 16.275400 1.917098 9.548600
v 15.848000 3.385498 9.548601
v 15.841100 3.416999 7.668601
v 15.848000 23.197199 10.841204
v 15.848000 23.197199 7.665204
v 16.275400 1.917098 9.548600
v 15.848000 3.385498 9.548601
v 15.848000 1.917098 10.007100
v 15.848000 -0.001502 10.007100
v 16.275400 -0.001502 9.548600
v 13.747600 -0.001501 7.665200
v 13.747600 -0.001502 9.548600
v 13.747600 1.917099 7.665201
v 13.747600 1.917098 9.548600
v 14.172800 3.416999 7.668601
v 14.174900 3.385498 9.548601
v 14.174900 23.197199 10.841204
v 14.174900 23.197199 7.665204
v 13.747600 1.917098 9.548600
v 14.174900 1.917098 10.007100
v 14.174900 3.385498 9.548601
v 14.174900 -0.001502 10.007100
v 13.747600 -0.001502 9.548600
v 14.174900 23.197199 10.841204
v 14.174900 3.385498 9.548601
v 15.848000 23.197199 10.841204
v 15.848000 3.385498 9.548601
v 14.174900 1.917098 10.007100
v 15.848000 1.917098 10.007100
v 14.174900 -0.001502 10.007100
v 15.848000 -0.001502 10.007100
v 14.948500 28.781399 6.147105
v 14.948500 26.644299 11.363205
v 16.062300 27.097399 6.147104
v 16.062300 24.960299 11.363204
v 16.062300 27.097399 6.147104
v 16.062300 24.960299 11.363204
v 16.062599 22.853598 6.147104
v 16.062599 22.853598 11.363204
v 16.062300 24.960299 11.363204
v 14.948500 26.644299 11.363205
v 14.948500 24.960299 12.221304
v 16.062599 22.853598 11.363204
v 16.062300 24.960299 11.363204
v 14.948500 22.853598 12.216104
v 14.948500 24.960299 12.221304
v 13.834600 24.960299 11.363204
v 14.948500 26.644299 11.363205
v 13.834600 27.097399 6.147104
v 14.948500 28.781399 6.147105
v 13.834600 27.097399 6.147104
v 13.843600 22.853598 6.147104
v 13.834600 24.960299 11.363204
v 13.843600 22.853598 11.363204
v 13.834600 24.960299 11.363204
v 14.948500 24.960299 12.221304
v 14.948500 26.644299 11.363205
v 14.948500 24.960299 12.221304
v 13.834600 24.960299 11.363204
v 14.948500 22.853598 12.216104
v 13.843600 22.853598 11.363204
v 15.000000 30.000000 0.000005
v 2.862000 29.807699 5.465305
v 2.855600 29.807697 12.219005
v 2.862000 27.962500 5.465305
v 2.855600 27.962498 12.219005
v 1.242000 3.981099 7.448901
v 1.242000 25.615898 7.448905
v 1.242000 3.981098 10.617501
v 1.242000 25.615898 10.617504
v 2.190200 29.101599 11.696304
v 2.190200 26.662498 11.696304
v 2.190200 29.101599 6.276605
v 2.190200 26.662498 6.276604
v 2.190200 26.662498 11.696304
v 1.345200 24.574598 10.861904
v 2.190200 26.662498 6.276604
v 1.345200 24.574598 7.111004
v 1.527000 2.519398 11.989200
v 2.253500 2.519398 10.989700
v 1.242000 3.981098 10.617501
v 2.253500 -0.000002 10.989700
v 2.253500 2.519398 10.989700
v 1.527000 -0.000002 11.989200
v 1.527000 2.519398 11.989200
v 2.253500 2.519399 7.076601
v 1.242000 3.981099 7.448901
v 2.253500 2.519398 10.989700
v 1.242000 3.981098 10.617501
v 2.253500 -0.000001 7.076600
v 2.253500 2.519399 7.076601
v 2.253500 -0.000002 10.989700
v 2.253500 2.519398 10.989700
v 0.000000 29.807699 5.445105
v 0.000000 29.807697 12.219005
v 2.862000 29.807699 5.465305
v 2.855600 29.807697 12.219005
v 2.855600 27.962498 12.219005
v 2.855600 29.807697 12.219005
v 0.000000 27.962498 12.219005
v 0.000000 29.807697 12.219005
v 0.000000 26.662498 11.696304
v 2.190200 26.662498 11.696304
v 0.000000 29.101599 11.696304
v 2.190200 29.101599 11.696304
v 1.345200 24.574598 10.861904
v 0.000000 24.574598 10.861904
v 1.242000 25.615898 10.617504
v 0.000000 25.615898 10.617504
v 1.242000 3.981098 10.617501
v 0.000000 3.990298 10.614201
v 1.527000 2.519398 11.989200
v 1.242000 3.981098 10.617501
v 0.000000 2.519398 11.989200
v 0.000000 3.990298 10.614201
v 1.527000 2.519398 11.989200
v 0.000000 2.519398 11.989200
v 1.527000 -0.000002 11.989200
v 0.000000 -0.000002 11.989200
v 30.000000 30.000000 0.000005
v 30.000000 0.000000 0.000000
v 22.500000 30.000000 0.000005
v 15.000000 30.000000 0.000005
v 0.000000 0.000000 0.000000
v 7.500000 30.000000 0.000005
v 0.000000 30.000000 0.000005
v 30.000000 27.962498 12.219005
v 27.144400 27.962498 12.219005
v 30.000000 27.960699 5.445105
v 27.138000 27.962500 5.465305
v 0.000000 27.960699 5.445105
v 2.862000 27.962500 5.465305
v 0.000000 27.962498 12.219005
v 2.855600 27.962498 12.219005
v 14.948500 22.853598 12.216104
v 13.843600 22.853598 11.363204
v 14.948500 22.857498 6.147104
v 13.843600 22.853598 6.147104
v 16.062599 22.853598 11.363204
v 16.062599 22.853598 6.147104
v 0.000000 24.573997 7.111004
v 1.345200 24.574598 7.111004
v 0.000000 24.574598 10.861904
v 1.345200 24.574598 10.861904
v 30.000000 24.573997 7.111004
v 30.000000 24.574598 10.861904
v 28.654800 24.574598 7.111004
v 28.654800 24.574598 10.861904
vt 0.225900 0.336200
vt 0.225900 0.318100
vt 0.006200 0.336200
vt 0.006300 0.318300
vt 0.723200 0.346300
vt 0.723200 0.408100
vt 0.120700 0.346300
vt 0.120700 0.408100
vt 0.714700 0.560500
vt 0.847500 0.560500
vt 0.714700 0.585700
vt 0.847500 0.585700
vt 0.735700 0.561100
vt 0.847400 0.561100
vt 0.738600 0.521500
vt 0.815500 0.521500
vt 0.278200 0.123100
vt 0.334800 0.146400
vt 0.278000 0.146400
vt 0.278200 0.123100
vt 0.278000 0.146400
vt 0.214200 0.123200
vt 0.214200 0.146400
vt 0.068000 0.408100
vt 0.068000 0.346300
vt 0.120700 0.408100
vt 0.120700 0.346300
vt 0.068000 0.346300
vt 0.068000 0.408100
vt 0.001500 0.346300
vt 0.001500 0.408100
vt 0.234100 0.817800
vt 0.359900 0.817800
vt 0.234200 0.917200
vt 0.359300 0.917400
vt 0.085300 0.300200
vt 0.085300 0.319500
vt 0.165800 0.300200
vt 0.165800 0.319500
vt 0.781100 0.586000
vt 0.847500 0.586000
vt 0.781100 0.560300
vt 0.847500 0.560300
vt 0.775700 0.521700
vt 0.816000 0.521700
vt 0.722700 0.377000
vt 0.722700 0.407900
vt 0.121000 0.377000
vt 0.121000 0.407900
vt 0.067900 0.377000
vt 0.121000 0.377000
vt 0.067900 0.407900
vt 0.121000 0.407900
vt -0.001400 0.407900
vt -0.001400 0.377000
vt 0.067900 0.407900
vt 0.067900 0.377000
vt 0.979900 0.002400
vt 0.718600 0.002400
vt 0.979900 0.452300
vt 0.718600 0.452300
vt 0.001900 0.676900
vt 0.002500 0.878400
vt 0.123400 0.676800
vt 0.123400 0.878300
vt 0.231300 0.676500
vt 0.231300 0.877900
vt 0.979900 0.452300
vt 0.697600 0.452300
vt 0.979900 0.002400
vt 0.697600 0.002400
vt 0.002500 0.878400
vt 0.123400 0.878300
vt 0.001900 0.676900
vt 0.123400 0.676800
vt 0.231300 0.877900
vt 0.231300 0.676500
vt 0.001900 0.676900
vt 0.002500 0.878400
vt 0.123400 0.676800
vt 0.123400 0.878300
vt 0.232500 0.878000
vt 0.450700 0.878000
vt 0.232500 0.675600
vt 0.232500 0.878000
vt 0.450700 0.675600
vt 0.232500 0.675600
vt 0.450700 0.675600
vt 0.450700 0.878000
vt 0.232500 0.878000
vt 0.231300 0.676500
vt 0.231300 0.877900
vt 0.718600 0.002400
vt 0.979900 0.003200
vt 0.718600 0.452300
vt 0.979900 0.452300
vt 0.697600 0.002400
vt 0.697600 0.452300
vt 0.002500 0.878400
vt 0.123400 0.878300
vt 0.001900 0.676900
vt 0.123400 0.676800
vt 0.231300 0.877900
vt 0.231300 0.676500
vt -0.001400 0.455000
vt 0.067900 0.455000
vt -0.001400 0.407900
vt 0.067900 0.407900
vt 0.121000 0.407900
vt 0.121000 0.455000
vt 0.722700 0.407900
vt 0.722700 0.455000
vt 0.278200 0.123100
vt 0.334800 0.146400
vt 0.278000 0.146400
vt 0.214200 0.146400
vt 0.214200 0.123200
vt -0.001400 0.455000
vt -0.001400 0.407900
vt 0.067900 0.455000
vt 0.067900 0.407900
vt 0.121000 0.455000
vt 0.121000 0.407900
vt 0.722700 0.407900
vt 0.722700 0.455000
vt 0.278200 0.123100
vt 0.278000 0.146400
vt 0.335100 0.146400
vt 0.214200 0.146400
vt 0.214200 0.123100
vt 0.723200 0.408100
vt 0.120700 0.408100
vt 0.723200 0.346300
vt 0.120700 0.346300
vt 0.068000 0.408100
vt 0.068000 0.346300
vt 0.001500 0.408100
vt 0.001500 0.346300
vt 0.996300 0.642500
vt 0.996300 0.599400
vt 0.942100 0.642500
vt 0.942100 0.599400
vt 0.918900 0.485200
vt 0.899700 0.520100
vt 0.830500 0.482100
vt 0.830500 0.519100
vt 0.241200 0.998200
vt 0.318200 0.955200
vt 0.317500 0.998300
vt 0.379900 0.342400
vt 0.450600 0.342400
vt 0.379900 0.300100
vt 0.450700 0.300100
vt 0.942100 0.599400
vt 0.996300 0.599400
vt 0.942100 0.642500
vt 0.996300 0.642500
vt 0.918900 0.485200
vt 0.830500 0.482100
vt 0.899700 0.520100
vt 0.830500 0.519100
vt 0.240700 0.998000
vt 0.317500 0.998300
vt 0.318200 0.955200
vt 0.450700 0.300100
vt 0.450600 0.342400
vt 0.379900 0.300100
vt 0.379900 0.342400
vt 0.450700 0.878000
vt 0.006300 0.318300
vt 0.225900 0.318100
vt 0.006200 0.336200
vt 0.225900 0.336200
vt 0.120700 0.408100
vt 0.723200 0.408100
vt 0.120700 0.346300
vt 0.723200 0.346300
vt 0.847500 0.585700
vt 0.847500 0.560500
vt 0.714700 0.585700
vt 0.714700 0.560500
vt 0.735700 0.561100
vt 0.738600 0.521500
vt 0.847400 0.561100
vt 0.815500 0.521500
vt 0.278200 0.123100
vt 0.278000 0.146400
vt 0.334800 0.146400
vt 0.214200 0.146400
vt 0.278000 0.146400
vt 0.214200 0.123200
vt 0.278200 0.123100
vt 0.068000 0.408100
vt 0.120700 0.408100
vt 0.068000 0.346300
vt 0.120700 0.346300
vt 0.001500 0.408100
vt 0.068000 0.408100
vt 0.001500 0.346300
vt 0.068000 0.346300
vt 0.359900 0.817800
vt 0.234100 0.817800
vt 0.359300 0.917400
vt 0.234200 0.917200
vt 0.165800 0.300200
vt 0.165800 0.319500
vt 0.085300 0.300200
vt 0.085300 0.319500
vt 0.781100 0.560300
vt 0.847500 0.560300
vt 0.781100 0.586000
vt 0.847500 0.586000
vt 0.816000 0.521700
vt 0.775700 0.521700
vt 0.722700 0.407900
vt 0.722700 0.377000
vt 0.121000 0.407900
vt 0.121000 0.377000
vt 0.067900 0.407900
vt 0.121000 0.407900
vt 0.067900 0.377000
vt 0.121000 0.377000
vt 0.067900 0.407900
vt 0.067900 0.377000
vt -0.001400 0.407900
vt -0.001400 0.377000
vt 0.256600 0.055100
vt 0.256600 0.055100
vt 0.256600 0.055100
vt 0.256600 0.055100
vt 0.256600 0.055100
vt 0.256600 0.055100
vt 0.256600 0.055100
vt 0.257300 0.817800
vt 0.257300 0.917200
vt 0.383100 0.817800
vt 0.382500 0.917400
vt 0.383100 0.817800
vt 0.382500 0.917400
vt 0.257300 0.817800
vt 0.257300 0.917200
vt 0.946200 0.634200
vt 0.989300 0.634200
vt 0.946200 0.605600
vt 0.989300 0.605600
vt 0.989300 0.634200
vt 0.989300 0.605600
vt 0.821400 0.587900
vt 0.716500 0.587900
vt 0.799300 0.522700
vt 0.734400 0.522800
vt 0.821400 0.587900
vt 0.799300 0.522700
vt 0.716500 0.587900
vt 0.734400 0.522800
vn -1.0000 0.0000 0.0009
vn -1.0000 0.0000 0.0000
vn -0.9270 -0.3752 0.0000
vn -0.6597 0.5786 0.4795
vn -0.8089 0.0000 0.5880
vn -0.8223 0.5690 0.0000
vn -0.6597 0.5787 0.4795
vn 0.0000 1.0000 0.0000
vn 0.0000 0.0000 1.0000
vn 0.0000 -0.3711 0.9286
vn 0.0000 -0.0002 1.0000
vn 0.0001 -0.0001 1.0000
vn 0.0027 -0.0000 1.0000
vn 0.0000 0.6829 0.7305
vn -0.0031 0.6846 0.7289
vn 0.0000 -0.0046 1.0000
vn 0.0000 -0.2618 0.9651
vn 1.0000 0.0000 0.0000
vn 0.9602 0.2794 0.0000
vn 0.9606 0.2781 0.0011
vn 1.0000 0.0000 0.0001
vn 0.7155 0.2082 0.6669
vn 0.7154 0.2082 0.6669
vn 0.7315 0.0000 0.6819
vn -1.0000 -0.0000 0.0016
vn -0.9621 0.2727 0.0057
vn -1.0000 0.0000 0.0001
vn -0.7155 0.2082 0.6669
vn -0.7155 0.2082 0.6668
vn -0.7316 0.0000 0.6818
vn 0.0000 -0.0651 0.9979
vn -0.0001 -0.0651 0.9979
vn -0.0000 0.2980 0.9546
vn 0.8136 0.5381 0.2205
vn 1.0000 0.0001 0.0000
vn 0.5659 0.3743 0.7346
vn 0.6079 0.0001 0.7940
vn -0.8135 0.5381 0.2205
vn -1.0000 -0.0021 -0.0009
vn -1.0000 -0.0020 -0.0009
vn -1.0000 -0.0043 0.0000
vn -0.5659 0.3743 0.7346
vn -0.6103 -0.0019 0.7922
vn -0.6110 -0.0026 0.7916
vn 1.0000 0.0000 0.0009
vn 0.9270 -0.3752 0.0000
vn 0.6597 0.5786 0.4795
vn 0.8089 0.0000 0.5880
vn 0.8223 0.5690 0.0000
vn 0.6597 0.5787 0.4795
vn -0.0001 -0.0000 1.0000
vn -0.0027 -0.0002 1.0000
vn 0.0000 0.6843 0.7292
vn 0.0031 0.6829 0.7305
vn 0.0000 0.0000 -1.0000
vn 0.0000 -1.0000 0.0003
vn -0.0002 -1.0000 0.0002
vn -0.0006 -1.0000 0.0000
vn 0.0006 -1.0000 0.0003
vn 0.0005 -1.0000 0.0002
vn 0.0007 -1.0000 0.0003
vn 0.0000 -1.0000 -0.0000
vn 0.0003 -1.0000 -0.0006
vn 0.0008 -1.0000 -0.0006
vn 0.0004 -1.0000 -0.0005
vn 0.0035 -1.0000 0.0000
vn -0.0008 -1.0000 -0.0006
vn -0.0035 -1.0000 0.0000
vn 0.0004 -1.0000 0.0002
vn 0.0003 -1.0000 0.0001
vn -0.0007 -1.0000 0.0004
vn -0.0006 -1.0000 0.0003
vn -0.0003 -1.0000 0.0001
g m_a2.001_m_a2.001_Default_OBJ.020
usemtl Default_OBJ.020
s 1
f 1/1/1 2/2/1 3/3/1
f 3/3/1 2/2/1 4/4/1
f 5/5/2 6/6/2 7/7/2
f 7/7/2 6/6/2 8/8/2
f 9/9/2 10/10/2 11/11/2
f 11/11/2 10/10/2 12/12/2
f 13/13/2 14/14/2 15/15/3
f 15/15/3 14/14/2 16/16/3
f 17/17/4 18/18/4 19/19/4
f 20/20/5 21/21/5 22/22/5
f 22/22/5 21/21/5 23/23/5
f 24/24/6 25/25/4 26/26/6
f 26/26/6 25/25/4 27/27/7
f 28/28/2 29/29/2 30/30/2
f 30/30/2 29/29/2 31/31/2
f 32/32/8 33/33/8 34/34/8
f 34/34/8 33/33/8 35/35/8
f 36/36/9 37/37/9 38/38/9
f 38/38/9 37/37/9 39/39/9
f 40/40/9 41/41/9 42/42/9
f 42/42/9 41/41/9 43/43/9
f 42/42/9 43/43/9 44/44/10
f 44/44/10 43/43/9 45/45/10
f 46/46/11 47/47/12 48/48/11
f 48/48/11 47/47/12 49/49/13
f 50/50/14 51/51/14 52/52/14
f 53/53/15 52/52/14 51/51/14
f 54/54/9 55/55/9 56/56/9
f 56/56/9 55/55/9 57/57/9
f 58/58/16 59/59/16 60/60/16
f 59/59/16 61/61/16 60/60/16
f 62/62/9 63/63/9 64/64/9
f 63/63/9 65/65/9 64/64/9
f 64/64/9 65/65/9 66/66/16
f 65/65/9 67/67/16 66/66/16
f 68/68/16 69/69/16 70/70/16
f 69/69/16 71/71/16 70/70/16
f 72/72/9 73/73/9 74/74/9
f 73/73/9 75/75/9 74/74/9
f 73/73/9 76/76/16 75/75/9
f 76/76/16 77/77/16 75/75/9
f 78/78/9 79/79/9 80/80/9
f 79/79/9 81/81/9 80/80/9
f 82/82/8 83/83/8 84/84/8
f 85/85/8 84/84/8 86/86/8
f 86/86/8 84/84/8 83/83/8
f 87/87/8 88/88/8 89/89/8
f 89/89/8 90/90/8 87/87/8
f 80/80/9 81/81/9 91/91/17
f 81/81/9 92/92/17 91/91/17
f 93/93/16 94/94/16 95/95/16
f 95/95/16 94/94/16 96/96/17
f 94/94/16 97/97/16 96/96/17
f 97/97/16 98/98/17 96/96/17
f 99/99/9 100/100/9 101/101/9
f 100/100/9 102/102/9 101/101/9
f 100/100/9 103/103/16 102/102/9
f 103/103/16 104/104/17 102/102/9
f 105/105/18 106/106/18 107/107/18
f 106/106/18 108/108/18 107/107/18
f 108/108/18 106/106/18 109/109/19
f 109/109/19 106/106/18 110/110/20
f 111/111/18 109/109/19 112/112/21
f 110/110/20 112/112/21 109/109/19
f 113/113/22 114/114/23 115/115/22
f 115/115/22 116/116/24 113/113/22
f 116/116/24 117/117/24 113/113/22
f 118/118/2 119/119/2 120/120/25
f 119/119/2 121/121/2 120/120/25
f 122/122/26 120/120/25 123/123/26
f 123/123/26 120/120/25 121/121/2
f 124/124/2 125/125/27 123/123/26
f 122/122/26 123/123/26 125/125/27
f 126/126/28 127/127/28 128/128/29
f 127/127/28 126/126/28 129/129/30
f 126/126/28 130/130/30 129/129/30
f 131/131/31 132/132/31 133/133/31
f 132/132/31 134/134/32 133/133/31
f 135/135/33 136/136/33 132/132/31
f 132/132/31 136/136/33 134/134/32
f 135/135/33 137/137/9 136/136/33
f 137/137/9 138/138/9 136/136/33
f 139/139/34 140/140/34 141/141/34
f 141/141/34 140/140/34 142/142/34
f 143/143/35 144/144/35 145/145/35
f 145/145/35 144/144/35 146/146/35
f 147/147/36 148/148/36 149/149/36
f 150/150/37 151/151/36 152/152/37
f 152/152/37 151/151/36 153/153/36
f 154/154/38 155/155/38 156/156/38
f 156/156/38 155/155/38 157/157/38
f 158/158/39 159/159/40 160/160/39
f 160/160/39 159/159/40 161/161/41
f 162/162/42 163/163/42 164/164/42
f 165/165/42 166/166/42 167/167/43
f 166/166/42 168/168/44 167/167/43
f 85/85/8 169/169/8 88/88/8
f 87/87/8 85/85/8 88/88/8
f 85/85/8 86/86/8 169/169/8
f 170/170/45 171/171/45 172/172/45
f 172/172/45 171/171/45 173/173/45
f 174/174/18 175/175/18 176/176/18
f 176/176/18 175/175/18 177/177/18
f 178/178/18 179/179/18 180/180/18
f 180/180/18 179/179/18 181/181/18
f 182/182/18 183/183/46 184/184/18
f 183/183/46 185/185/46 184/184/18
f 186/186/47 187/187/47 188/188/47
f 189/189/48 190/190/48 191/191/48
f 191/191/48 190/190/48 192/192/48
f 193/193/49 194/194/49 195/195/47
f 194/194/49 196/196/50 195/195/47
f 197/197/18 198/198/18 199/199/18
f 199/199/18 198/198/18 200/200/18
f 201/201/8 202/202/8 203/203/8
f 204/204/8 203/203/8 202/202/8
f 205/205/9 206/206/9 207/207/9
f 206/206/9 208/208/9 207/207/9
f 209/209/9 210/210/9 211/211/9
f 210/210/9 212/212/9 211/211/9
f 210/210/9 209/209/9 213/213/10
f 214/214/10 213/213/10 209/209/9
f 215/215/9 216/216/51 217/217/9
f 218/218/52 217/217/9 216/216/51
f 219/219/53 220/220/53 221/221/53
f 220/220/53 222/222/54 221/221/53
f 223/223/9 224/224/9 225/225/9
f 224/224/9 226/226/9 225/225/9
f 227/227/55 228/228/55 229/229/55
f 230/230/55 229/229/55 228/228/55
f 230/230/55 228/228/55 231/231/55
f 230/230/55 231/231/55 232/232/55
f 231/231/55 233/233/55 232/232/55
f 234/234/56 235/235/57 236/236/57
f 235/235/57 237/237/58 236/236/57
f 238/238/59 239/239/60 240/240/61
f 241/241/62 240/240/61 239/239/60
f 242/242/63 243/243/64 244/244/65
f 243/243/64 245/245/66 244/244/65
f 242/242/63 244/244/65 246/246/67
f 244/244/65 247/247/68 246/246/67
f 248/248/69 249/249/70 250/250/59
f 251/251/62 250/250/59 249/249/70
f 252/252/71 253/253/72 254/254/73
f 255/255/62 254/254/73 253/253/72
