# Blender v2.92.0 OBJ File: ''
# www.blender.org
mtllib m_hbs047.mtl
o m_a.015
v 11.034100 47.919899 -0.229392
v 11.034100 48.845402 -0.229392
v 14.131400 47.919899 -0.229392
v 14.131400 48.845402 -0.229392
v 11.034100 47.919899 4.301308
v 11.034100 48.845402 4.301308
v 11.034100 47.919899 -0.229392
v 11.034100 48.845402 -0.229392
v 14.131400 47.919899 4.301308
v 14.131400 48.845402 4.301308
v 11.034100 47.919899 4.301308
v 11.034100 48.845402 4.301308
v 14.131400 48.845402 4.301308
v 14.131400 48.845402 -0.229392
v 11.034100 48.845402 4.301308
v 11.034100 48.845402 -0.229392
v 17.228701 47.919899 -0.229392
v 14.131400 47.919899 -0.229392
v 17.228701 48.845402 -0.229392
v 14.131400 48.845402 -0.229392
v 17.228701 47.919899 4.301308
v 17.228701 47.919899 -0.229392
v 17.228701 48.845402 4.301308
v 17.228701 48.845402 -0.229392
v 14.131400 47.919899 4.301308
v 17.228701 47.919899 4.301308
v 14.131400 48.845402 4.301308
v 17.228701 48.845402 4.301308
v 14.131400 48.845402 4.301308
v 17.228701 48.845402 4.301308
v 14.131400 48.845402 -0.229392
v 17.228701 48.845402 -0.229392
v 4.509000 29.046099 15.000005
v 14.129400 41.209396 15.000007
v 4.509000 29.046101 1.802805
v 9.568500 35.447601 1.802106
v 9.561700 35.438999 7.501006
v 14.129400 41.209400 7.543207
v 12.082700 40.324100 1.801807
v 11.933800 37.370899 1.801806
v 9.568500 35.447601 1.802106
v 4.657400 28.294001 1.802805
v 4.509000 29.046101 1.802805
v 11.496300 47.919899 0.336908
v 14.131400 47.919899 0.336908
v 12.277500 40.324200 0.336907
v 14.131400 40.324200 0.336907
v 12.277500 40.324200 0.336907
v 12.082700 40.324100 1.801807
v 11.496300 47.919899 0.336908
v 11.496300 47.919899 3.735008
v 12.277500 41.276199 3.735007
v 12.277500 41.276199 3.735007
v 14.131400 43.489498 3.735007
v 11.496300 47.919899 3.735008
v 14.131400 47.919899 3.735008
v 9.115000 13.069500 2.004302
v 12.277500 40.324200 0.336907
v 14.131400 13.069500 2.004302
v 14.131400 40.324200 0.336907
v 9.115000 13.069499 3.875802
v 9.115000 13.069500 2.004302
v 9.115000 -0.000001 3.104800
v 9.115000 -0.000000 1.233300
v 14.131400 -0.000000 1.233300
v 9.115000 -0.000000 1.233300
v 9.568500 35.447601 1.802106
v 9.561700 35.438999 7.501006
v 12.082700 40.324100 1.801807
v 12.277500 41.276199 3.735007
v 14.129400 41.209400 7.543207
v 14.131400 43.489498 3.735007
v 11.933200 37.365601 3.104806
v 11.933800 37.370899 1.801806
v 12.082700 40.324100 1.801807
v 12.277500 40.324200 0.336907
v 4.657400 28.294001 1.802805
v 11.933800 37.370899 1.801806
v 4.679600 28.280300 3.104805
v 11.933200 37.365601 3.104806
v 23.605400 28.297300 1.802805
v 23.605400 28.304001 3.104805
v 16.328800 37.371899 1.801806
v 16.328600 37.373901 3.104806
v 33.094398 23.729500 1.804204
v 32.034100 24.298599 3.104804
v 1.849400 26.913900 1.804204
v 4.657400 28.294001 1.802805
v 2.909700 27.483101 3.104805
v 4.679600 28.280300 3.104805
v 16.766500 47.919899 0.336908
v 15.985300 40.324200 0.336907
v 14.131400 47.919899 0.336908
v 14.131400 40.324200 0.336907
v 15.985300 40.324200 0.336907
v 16.766500 47.919899 0.336908
v 16.180099 40.324200 1.801807
v 16.766500 47.919899 3.735008
v 15.985300 41.276199 3.735007
v 15.985300 41.276199 3.735007
v 16.766500 47.919899 3.735008
v 14.131400 43.489498 3.735007
v 14.131400 47.919899 3.735008
v 19.147800 13.069500 2.004302
v 14.131400 13.069500 2.004302
v 15.985300 40.324200 0.336907
v 14.131400 40.324200 0.336907
v 19.147800 13.069499 3.875802
v 19.147800 -0.000001 3.104800
v 19.147800 13.069500 2.004302
v 19.147800 -0.000000 1.233300
v 14.131400 -0.000000 1.233300
v 19.147800 -0.000000 1.233300
v 16.180099 40.324200 1.801807
v 18.692301 35.447601 1.802106
v 16.328800 37.371899 1.801806
v 23.605400 28.297300 1.802805
v 23.751801 29.046101 1.802805
v 23.751801 29.046099 15.000005
v 23.751801 29.046101 1.802805
v 14.129400 41.209396 15.000007
v 18.692301 35.447601 1.802106
v 18.699100 35.438999 7.501006
v 14.129400 41.209400 7.543207
v 33.424000 24.442801 1.804204
v 33.094398 23.729500 1.804204
v 1.519900 27.627298 15.000005
v 4.509000 29.046099 15.000005
v 1.519900 27.627300 1.804205
v 4.509000 29.046101 1.802805
v 1.519900 27.627300 1.804205
v 4.509000 29.046101 1.802805
v 1.849400 26.913900 1.804204
v 4.657400 28.294001 1.802805
v 33.424000 24.442801 1.804204
v 33.424000 24.442799 15.000004
v 1.849400 26.913898 15.000005
v 1.519900 27.627300 1.804205
v 1.849400 26.913900 1.804204
v 1.519900 27.627298 15.000005
v 1.849400 26.913898 15.000005
v 2.909700 -0.000001 3.104800
v 4.085300 13.069499 3.875802
v 9.115000 -0.000001 3.104800
v 9.115000 13.069499 3.875802
v 11.933200 37.365601 3.104806
v 4.679600 28.280300 3.104805
v 2.909700 27.483101 3.104805
v 2.909700 -0.000001 3.104800
v 2.909700 -0.000002 15.000000
v 4.085300 13.069499 3.875802
v 4.085300 13.069497 15.000002
v 2.909700 27.483101 3.104805
v 2.909700 27.483099 15.000005
v 33.094398 23.729500 1.804204
v 33.094398 23.729498 15.000004
v 32.034100 24.298599 3.104804
v 33.424000 24.442801 1.804204
v 33.424000 24.442799 15.000004
v 33.094398 23.729500 1.804204
v 33.094398 23.729498 15.000004
v 23.657499 -0.000001 3.104800
v 19.147800 -0.000001 3.104800
v 22.497101 13.069499 3.875802
v 19.147800 13.069499 3.875802
v 16.328600 37.373901 3.104806
v 23.605400 28.304001 3.104805
v 32.034100 -0.000001 3.104800
v 31.066000 13.069499 3.875802
v 32.034100 -0.000002 15.000000
v 31.066000 13.069497 15.000002
v 32.034100 24.298599 3.104804
v 32.034100 24.298597 15.000004
v 18.692301 35.447601 1.802106
v 16.180099 40.324200 1.801807
v 18.699100 35.438999 7.501006
v 15.985300 41.276199 3.735007
v 14.129400 41.209400 7.543207
v 14.131400 43.489498 3.735007
v 16.328600 37.373901 3.104806
v 16.328800 37.371899 1.801806
v 16.180099 40.324200 1.801807
v 15.985300 40.324200 0.336907
v 23.605400 28.304001 3.104805
v 32.034100 24.298599 3.104804
v 22.497101 13.069499 3.875802
v 31.066000 13.069499 3.875802
v 23.657499 -0.000001 3.104800
v 32.034100 -0.000001 3.104800
vt 0.126800 0.721200
vt 0.110400 0.721200
vt 0.126800 0.795100
vt 0.110400 0.795100
vt 0.018500 0.704600
vt 0.018500 0.721200
vt 0.110400 0.704600
vt 0.110400 0.721200
vt 0.001900 0.795100
vt 0.018300 0.795100
vt 0.001900 0.721200
vt 0.018300 0.721200
vt 0.018500 0.795100
vt 0.110400 0.795100
vt 0.018500 0.721200
vt 0.110400 0.721200
vt 0.126800 0.721200
vt 0.126800 0.795100
vt 0.110400 0.721200
vt 0.110400 0.795100
vt 0.018500 0.704600
vt 0.110400 0.704600
vt 0.018500 0.721200
vt 0.110400 0.721200
vt 0.001900 0.795100
vt 0.001900 0.721200
vt 0.018300 0.795100
vt 0.018300 0.721200
vt 0.018500 0.795100
vt 0.018500 0.721200
vt 0.110400 0.795100
vt 0.110400 0.721200
vt 0.343200 0.696100
vt 0.343200 0.925600
vt 0.569400 0.696100
vt 0.569400 0.817500
vt 0.471000 0.817500
vt 0.471000 0.925600
vt 0.569400 0.868600
vt 0.588100 0.868600
vt 0.569400 0.817500
vt 0.588100 0.691500
vt 0.569400 0.697300
vt 0.278900 0.745600
vt 0.338500 0.745600
vt 0.296500 0.614100
vt 0.338500 0.614100
vt 0.278600 0.614100
vt 0.251100 0.614100
vt 0.278900 0.745600
vt 0.213200 0.745600
vt 0.213200 0.631000
vt 0.195600 0.631000
vt 0.153900 0.669100
vt 0.213200 0.745600
vt 0.153900 0.745600
vt 0.114100 0.228800
vt 0.043500 0.700700
vt 0.001600 0.228800
vt 0.001600 0.700700
vt 0.152800 0.228800
vt 0.118300 0.228800
vt 0.152800 0.001700
vt 0.114100 0.001700
vt 0.001600 0.001700
vt 0.114100 0.001700
vt 0.239300 0.747800
vt 0.338300 0.747800
vt 0.239300 0.838300
vt 0.271500 0.856000
vt 0.338300 0.853100
vt 0.271500 0.897200
vt 0.169100 0.649600
vt 0.143300 0.649600
vt 0.143300 0.700700
vt 0.118300 0.700700
vt 0.614900 0.691500
vt 0.614900 0.868600
vt 0.588100 0.691500
vt 0.588100 0.868600
vt 0.588100 0.691500
vt 0.614900 0.691500
vt 0.588100 0.868600
vt 0.614900 0.868600
vt 0.588100 0.524200
vt 0.614900 0.543200
vt 0.569200 0.504500
vt 0.504300 0.504500
vt 0.547900 0.480500
vt 0.504300 0.485600
vt 0.278900 0.745600
vt 0.296500 0.614100
vt 0.338500 0.745600
vt 0.338500 0.614100
vt 0.278600 0.614100
vt 0.278900 0.745600
vt 0.251100 0.614100
vt 0.213200 0.745600
vt 0.213200 0.631000
vt 0.195600 0.631000
vt 0.213200 0.745600
vt 0.153900 0.669100
vt 0.153900 0.745600
vt 0.114100 0.228800
vt 0.001600 0.228800
vt 0.043500 0.700700
vt 0.001600 0.700700
vt 0.152800 0.228800
vt 0.152800 0.001700
vt 0.118300 0.228800
vt 0.114100 0.001700
vt 0.001600 0.001700
vt 0.114100 0.001700
vt 0.569400 0.868600
vt 0.569400 0.817500
vt 0.588100 0.868600
vt 0.588100 0.691500
vt 0.569400 0.697300
vt 0.343200 0.697300
vt 0.569400 0.697300
vt 0.343200 0.925600
vt 0.569400 0.817500
vt 0.471000 0.817500
vt 0.471000 0.925600
vt 0.569200 0.520800
vt 0.588100 0.524200
vt 0.384300 0.948600
vt 0.384300 0.998300
vt 0.156000 0.948600
vt 0.156000 0.998300
vt 0.271200 0.915400
vt 0.335500 0.915400
vt 0.272500 0.902300
vt 0.333000 0.902300
vt 0.569200 0.520800
vt 0.343200 0.520800
vt 0.343200 0.504500
vt 0.156000 0.948600
vt 0.156000 0.935500
vt 0.384300 0.948600
vt 0.384300 0.935500
vt 0.370800 0.001700
vt 0.348100 0.228600
vt 0.232800 0.001700
vt 0.232800 0.228600
vt 0.169100 0.649600
vt 0.333000 0.492200
vt 0.373900 0.478100
vt 0.584200 0.001700
vt 0.373900 0.001700
vt 0.584200 0.228600
vt 0.373900 0.228600
vt 0.584200 0.478100
vt 0.373900 0.478100
vt 0.569200 0.504500
vt 0.343200 0.504500
vt 0.547900 0.480500
vt 0.569200 0.520800
vt 0.343200 0.520800
vt 0.569200 0.504500
vt 0.343200 0.504500
vt 0.312200 0.001800
vt 0.232800 0.001700
vt 0.296400 0.228600
vt 0.232800 0.228600
vt 0.169100 0.649600
vt 0.320300 0.493800
vt 0.584200 0.001700
vt 0.584200 0.228600
vt 0.373900 0.001700
vt 0.373900 0.228600
vt 0.584200 0.478100
vt 0.373900 0.478100
vt 0.239300 0.747800
vt 0.239300 0.838300
vt 0.338300 0.747800
vt 0.271500 0.856000
vt 0.338300 0.853100
vt 0.271500 0.897200
vt 0.169100 0.649600
vt 0.143300 0.649600
vt 0.143300 0.700700
vt 0.118300 0.700700
vt 0.826500 0.995100
vt 0.996300 0.925500
vt 0.803900 0.730900
vt 0.974000 0.730900
vt 0.825900 0.511000
vt 0.993600 0.505900
vn 0.0000 0.0000 -1.0000
vn -1.0000 0.0000 0.0000
vn 0.0000 -0.0000 1.0000
vn 0.0000 1.0000 0.0000
vn 1.0000 0.0000 0.0000
vn -0.7843 0.6204 0.0000
vn -0.7843 0.6204 0.0001
vn -0.7845 0.6201 0.0001
vn -0.7845 0.6201 0.0000
vn -0.7841 0.6207 0.0000
vn -0.0001 0.0000 -1.0000
vn -0.9862 -0.1014 -0.1311
vn -0.9862 -0.1014 -0.1312
vn -0.9970 -0.0770 -0.0000
vn -0.9811 -0.1154 0.1557
vn -0.9810 -0.1154 0.1557
vn 0.0000 -0.0611 -0.9981
vn 0.0000 0.0589 -0.9983
vn -0.9933 0.1152 0.0000
vn 0.7801 -0.6254 -0.0199
vn 0.7801 -0.6254 -0.0198
vn 0.7815 -0.6239 -0.0022
vn -0.7801 -0.6256 0.0032
vn -0.7801 -0.6256 0.0041
vn -0.7802 -0.6256 0.0032
vn -0.7800 -0.6258 0.0008
vn -0.4334 -0.9003 0.0406
vn -0.4334 -0.9003 0.0407
vn 0.4409 -0.8970 0.0331
vn 0.9862 -0.1014 -0.1311
vn 0.9862 -0.1014 -0.1312
vn 0.9970 -0.0770 -0.0000
vn 0.9811 -0.1154 0.1557
vn 0.9810 -0.1154 0.1557
vn 0.0001 0.0000 -1.0000
vn 0.7843 0.6204 -0.0000
vn 0.7843 0.6203 -0.0001
vn 0.7845 0.6201 0.0000
vn 0.7845 0.6201 0.0001
vn 0.7839 0.6208 0.0000
vn 0.0001 -0.0001 -1.0000
vn -0.4288 0.9034 0.0000
vn -0.7843 0.6204 0.0002
vn -0.0004 -0.0002 -1.0000
vn 0.4297 0.9030 0.0000
vn 0.4730 -0.8811 -0.0000
vn -0.9078 -0.4193 0.0000
vn 0.0464 -0.0371 -0.9982
vn 0.0232 -0.0515 -0.9984
vn -0.9960 0.0896 0.0000
vn -0.9967 -0.0813 -0.0000
vn -0.4729 -0.8811 0.0000
vn 0.9078 -0.4195 -0.0000
vn -0.0461 -0.0370 -0.9982
vn -0.0461 -0.0370 -0.9983
vn 0.9973 0.0739 0.0000
vn 0.9963 -0.0859 -0.0000
vn 0.7845 0.6201 -0.0004
vn 0.9933 0.1152 -0.0000
vn 0.9863 -0.1014 -0.1301
vn -0.0232 -0.0488 -0.9985
vn -0.0005 0.0589 -0.9983
vn 0.0000 -0.0685 -0.9977
g m_a.015_m_a.015_Default_OBJ.015
usemtl Default_OBJ.015
s 1
f 1/1/1 2/2/1 3/3/1
f 2/2/1 4/4/1 3/3/1
f 5/5/2 6/6/2 7/7/2
f 6/6/2 8/8/2 7/7/2
f 9/9/3 10/10/3 11/11/3
f 10/10/3 12/12/3 11/11/3
f 13/13/4 14/14/4 15/15/4
f 14/14/4 16/16/4 15/15/4
f 17/17/1 18/18/1 19/19/1
f 18/18/1 20/20/1 19/19/1
f 21/21/5 22/22/5 23/23/5
f 22/22/5 24/24/5 23/23/5
f 25/25/3 26/26/3 27/27/3
f 26/26/3 28/28/3 27/27/3
f 29/29/4 30/30/4 31/31/4
f 30/30/4 32/32/4 31/31/4
f 33/33/6 34/34/7 35/35/8
f 36/36/9 35/35/8 37/37/8
f 35/35/8 34/34/7 37/37/8
f 34/34/7 38/38/10 37/37/8
f 39/39/11 40/40/11 41/41/11
f 40/40/11 42/42/11 41/41/11
f 42/42/11 43/43/11 41/41/11
f 44/44/1 45/45/1 46/46/1
f 46/46/1 45/45/1 47/47/1
f 48/48/12 49/49/13 50/50/13
f 50/50/13 49/49/13 51/51/14
f 49/49/13 52/52/15 51/51/14
f 53/53/16 54/54/3 55/55/3
f 54/54/3 56/56/3 55/55/3
f 57/57/17 58/58/1 59/59/17
f 58/58/1 60/60/1 59/59/17
f 61/61/2 62/62/2 63/63/2
f 62/62/2 64/64/2 63/63/2
f 59/59/17 65/65/18 57/57/17
f 65/65/18 66/66/18 57/57/17
f 67/67/9 68/68/9 69/69/13
f 70/70/16 69/69/13 68/68/9
f 68/68/9 71/71/10 70/70/16
f 70/70/16 71/71/10 72/72/3
f 61/61/2 73/73/19 62/62/2
f 73/73/19 74/74/19 62/62/2
f 75/75/13 76/76/13 74/74/19
f 74/74/19 76/76/13 62/62/2
f 77/77/20 78/78/20 79/79/21
f 78/78/20 80/80/22 79/79/21
f 81/81/23 82/82/24 83/83/25
f 82/82/24 84/84/26 83/83/25
f 85/85/27 86/86/28 81/81/23
f 86/86/28 82/82/24 81/81/23
f 87/87/29 88/88/20 89/89/29
f 88/88/20 90/90/20 89/89/29
f 91/91/1 92/92/1 93/93/1
f 92/92/1 94/94/1 93/93/1
f 95/95/30 96/96/31 97/97/31
f 96/96/31 98/98/32 97/97/31
f 98/98/32 99/99/33 97/97/31
f 100/100/34 101/101/3 102/102/3
f 102/102/3 101/101/3 103/103/3
f 104/104/17 105/105/17 106/106/1
f 105/105/17 107/107/1 106/106/1
f 108/108/5 109/109/5 110/110/5
f 109/109/5 111/111/5 110/110/5
f 105/105/17 104/104/17 112/112/18
f 104/104/17 113/113/18 112/112/18
f 114/114/35 115/115/35 116/116/35
f 116/116/35 115/115/35 117/117/35
f 115/115/35 118/118/35 117/117/35
f 119/119/36 120/120/36 121/121/37
f 122/122/38 123/123/39 120/120/36
f 120/120/36 123/123/39 121/121/37
f 123/123/39 124/124/40 121/121/37
f 125/125/41 126/126/41 118/118/35
f 126/126/41 117/117/35 118/118/35
f 127/127/42 128/128/6 129/129/42
f 129/129/42 128/128/6 130/130/43
f 131/131/44 132/132/11 133/133/44
f 133/133/44 132/132/11 134/134/11
f 120/120/36 119/119/36 135/135/45
f 135/135/45 119/119/36 136/136/45
f 87/87/29 89/89/29 137/137/46
f 138/138/47 139/139/47 140/140/47
f 139/139/47 141/141/47 140/140/47
f 142/142/18 143/143/18 144/144/18
f 145/145/18 144/144/18 143/143/18
f 146/146/48 145/145/18 147/147/48
f 145/145/18 143/143/18 147/147/48
f 143/143/18 148/148/49 147/147/48
f 149/149/50 150/150/50 151/151/50
f 150/150/50 152/152/50 151/151/50
f 153/153/51 151/151/50 154/154/51
f 152/152/50 154/154/51 151/151/50
f 155/155/28 156/156/52 157/157/28
f 158/158/53 159/159/53 160/160/53
f 159/159/53 161/161/53 160/160/53
f 162/162/18 163/163/18 164/164/18
f 163/163/18 165/165/18 164/164/18
f 166/166/54 167/167/55 165/165/18
f 165/165/18 167/167/55 164/164/18
f 168/168/56 169/169/56 170/170/56
f 170/170/56 169/169/56 171/171/56
f 172/172/57 173/173/57 169/169/56
f 171/171/56 169/169/56 173/173/57
f 174/174/58 175/175/31 176/176/38
f 177/177/34 176/176/38 175/175/31
f 176/176/38 177/177/34 178/178/40
f 177/177/34 179/179/3 178/178/40
f 108/108/5 110/110/5 180/180/59
f 180/180/59 110/110/5 181/181/59
f 182/182/60 181/181/59 183/183/31
f 181/181/59 110/110/5 183/183/31
f 184/184/55 185/185/61 186/186/62
f 186/186/62 185/185/61 187/187/63
f 186/186/62 187/187/63 188/188/18
f 188/188/18 187/187/63 189/189/18
