# Blender v2.92.0 OBJ File: ''
# www.blender.org
mtllib m_hbu032.mtl
o m_a4.001
v 0.471000 2.093798 12.237200
v 0.471000 2.093898 11.084000
v 0.471000 1.092198 12.233600
v 0.471000 3.060498 11.089101
v 0.471000 3.059198 10.026201
v 0.471000 6.081599 8.031101
v 0.471000 6.081599 6.901101
v 0.471000 5.005999 8.017001
v 0.471000 7.083299 6.904701
v 0.471000 7.083299 5.751501
v 0.471000 8.049899 5.756701
v 0.471000 8.048699 4.693801
v 0.471000 10.938300 2.681002
v 0.471000 10.938600 -0.039098
v 0.471000 9.989000 2.681002
v 0.471000 4.000198 10.026801
v 0.471000 4.005999 9.038701
v 0.471000 4.999799 9.033901
v 0.471000 8.989599 4.694302
v 0.471000 8.995499 3.706301
v 0.471000 0.021100 -0.020800
v 0.471000 1.092098 13.459200
v 0.471000 0.022998 13.448700
v 0.471000 9.989199 3.701502
v 9.630100 4.999799 9.033901
v 9.630100 5.005999 8.017001
v 0.471000 4.999799 9.033901
v 0.471000 5.005999 8.017001
v 0.471000 4.000198 10.026801
v 0.471000 3.059198 10.026201
v 9.630100 4.000198 10.026801
v 9.630100 3.059798 10.026101
v 0.471000 3.060498 11.089101
v 9.630100 3.060498 11.089101
v 0.471000 3.059198 10.026201
v 9.630100 3.059798 10.026101
v 0.471000 2.093798 12.237200
v 0.471000 1.092198 12.233600
v 9.630100 2.093798 12.237200
v 9.630100 1.093198 12.233400
v 0.471000 2.093798 12.237200
v 9.630100 2.093798 12.237200
v 0.471000 2.093898 11.084000
v 9.630100 2.094598 11.083800
v 0.471000 3.060498 11.089101
v 0.471000 2.093898 11.084000
v 9.630100 3.060498 11.089101
v 9.630100 2.094598 11.083800
v 0.471000 4.999799 9.033901
v 0.471000 4.005999 9.038701
v 9.630100 4.999799 9.033901
v 9.630100 4.006198 9.038701
v 0.471000 4.000198 10.026801
v 9.630100 4.000198 10.026801
v 0.471000 4.005999 9.038701
v 9.630100 4.006198 9.038701
v 0.471000 1.092198 12.233600
v 0.471000 1.092098 13.459200
v 9.630100 1.093198 12.233400
v 9.630100 1.092098 13.459200
v 0.471000 1.092098 13.459200
v 0.471000 0.022998 13.448700
v 9.630100 1.092098 13.459200
v 9.630100 0.022998 13.448700
v 9.630100 8.049899 5.756701
v 9.630100 7.083999 5.751401
v 9.630100 8.049299 4.693602
v 9.630100 7.083299 6.904701
v 9.630100 6.082599 6.900901
v 9.630100 6.081599 8.031101
v 9.630100 5.005999 8.017001
v 9.630100 3.060498 11.089101
v 9.630100 2.094598 11.083800
v 9.630100 3.059798 10.026101
v 9.630100 2.093798 12.237200
v 9.630100 1.093198 12.233400
v 9.630100 8.989599 4.694302
v 9.630100 8.995599 3.706301
v 9.630100 4.999799 9.033901
v 9.630100 4.006198 9.038701
v 9.630100 4.000198 10.026801
v 9.630100 10.938300 2.681002
v 9.630100 9.989000 2.681002
v 9.630100 10.938600 -0.039098
v 9.630200 0.021100 -0.020800
v 9.630100 1.092098 13.459200
v 9.630100 0.022998 13.448700
v 9.630100 9.989199 3.701502
v 9.630100 10.938300 2.681002
v 9.630100 10.938600 -0.039098
v 0.471000 10.938300 2.681002
v 0.471000 10.938600 -0.039098
v 9.630100 10.938300 2.681002
v 0.471000 10.938300 2.681002
v 9.630100 9.989000 2.681002
v 0.471000 9.989000 2.681002
v 9.630100 9.989199 3.701502
v 9.630100 9.989000 2.681002
v 0.471000 9.989199 3.701502
v 0.471000 9.989000 2.681002
v 0.471000 8.989599 4.694302
v 0.471000 8.048699 4.693801
v 9.630100 8.989599 4.694302
v 9.630100 8.049299 4.693602
v 0.471000 8.049899 5.756701
v 9.630100 8.049899 5.756701
v 0.471000 8.048699 4.693801
v 9.630100 8.049299 4.693602
v 0.471000 7.083299 6.904701
v 0.471000 6.081599 6.901101
v 9.630100 7.083299 6.904701
v 9.630100 6.082599 6.900901
v 0.471000 7.083299 6.904701
v 9.630100 7.083299 6.904701
v 0.471000 7.083299 5.751501
v 9.630100 7.083999 5.751401
v 0.471000 8.049899 5.756701
v 0.471000 7.083299 5.751501
v 9.630100 8.049899 5.756701
v 9.630100 7.083999 5.751401
v 0.471000 9.989199 3.701502
v 0.471000 8.995499 3.706301
v 9.630100 9.989199 3.701502
v 9.630100 8.995599 3.706301
v 0.471000 8.989599 4.694302
v 9.630100 8.989599 4.694302
v 0.471000 8.995499 3.706301
v 9.630100 8.995599 3.706301
v 0.471000 6.081599 6.901101
v 0.471000 6.081599 8.031101
v 9.630100 6.082599 6.900901
v 9.630100 6.081599 8.031101
v 0.471000 6.081599 8.031101
v 0.471000 5.005999 8.017001
v 9.630100 6.081599 8.031101
v 9.630100 5.005999 8.017001
v 0.471000 10.938600 -0.039098
v 9.630100 10.938600 -0.039098
v 0.471000 0.021100 -0.020800
v 9.630200 0.021100 -0.020800
vt 0.055700 0.640300
vt 0.104800 0.640300
vt 0.055900 0.599500
vt 0.104600 0.679700
vt 0.151400 0.679700
vt 0.235100 0.803000
vt 0.281000 0.803100
vt 0.235700 0.759100
vt 0.280800 0.843900
vt 0.329900 0.843900
vt 0.329700 0.883300
vt 0.374900 0.883300
vt 0.460500 1.001200
vt 0.576200 1.001200
vt 0.460500 0.962500
vt 0.151400 0.723200
vt 0.192800 0.723500
vt 0.193000 0.758900
vt 0.374900 0.921700
vt 0.416900 0.921900
vt 0.575400 0.547400
vt 0.002100 0.599400
vt 0.002500 0.547400
vt 0.417100 0.962500
vt 0.209300 0.429300
vt 0.209300 0.530800
vt 0.832700 0.429300
vt 0.832700 0.530800
vt 0.209300 0.188700
vt 0.209300 0.124400
vt 0.832700 0.188700
vt 0.832700 0.124400
vt 0.209300 0.305500
vt 0.832700 0.305500
vt 0.209300 0.360300
vt 0.832700 0.360300
vt 0.209300 0.188200
vt 0.209300 0.120800
vt 0.832700 0.188200
vt 0.832700 0.120800
vt 0.209300 0.188200
vt 0.832700 0.188200
vt 0.209300 0.242100
vt 0.832700 0.242100
vt 0.209300 0.305500
vt 0.209300 0.242100
vt 0.832700 0.305500
vt 0.832700 0.242100
vt 0.832700 0.424500
vt 0.832700 0.360700
vt 0.209300 0.424500
vt 0.209300 0.360700
vt 0.209300 0.188700
vt 0.832700 0.188700
vt 0.209300 0.243900
vt 0.832700 0.243900
vt 0.832700 0.117900
vt 0.832700 0.065000
vt 0.209300 0.117900
vt 0.209300 0.065000
vt 0.832700 0.065000
vt 0.832700 -0.000200
vt 0.209300 0.065000
vt 0.209300 -0.000200
vt 0.329700 0.883300
vt 0.329900 0.843900
vt 0.374900 0.883300
vt 0.280800 0.843900
vt 0.281000 0.803100
vt 0.235100 0.803000
vt 0.235700 0.759100
vt 0.104600 0.679700
vt 0.104800 0.640300
vt 0.151400 0.679700
vt 0.055700 0.640300
vt 0.055900 0.599500
vt 0.374900 0.921700
vt 0.416900 0.921900
vt 0.193000 0.758900
vt 0.192800 0.723500
vt 0.151400 0.723200
vt 0.460500 1.001200
vt 0.460500 0.962500
vt 0.576200 1.001200
vt 0.575400 0.547400
vt 0.002100 0.599400
vt 0.002500 0.547400
vt 0.417100 0.962500
vt 0.832700 0.429900
vt 0.832700 0.530200
vt 0.209300 0.429900
vt 0.209300 0.530200
vt 0.832700 0.426900
vt 0.209300 0.426900
vt 0.832700 0.365200
vt 0.209300 0.365200
vt 0.209300 0.189300
vt 0.209300 0.244500
vt 0.832700 0.189300
vt 0.832700 0.244500
vt 0.209300 0.424600
vt 0.209300 0.360300
vt 0.832700 0.424600
vt 0.832700 0.360300
vt 0.209300 0.305500
vt 0.832700 0.305500
vt 0.209300 0.360300
vt 0.832700 0.360300
vt 0.209300 0.188200
vt 0.209300 0.122700
vt 0.832700 0.188200
vt 0.832700 0.122700
vt 0.209300 0.188200
vt 0.832700 0.188200
vt 0.209300 0.242100
vt 0.832700 0.242100
vt 0.209300 0.305500
vt 0.209300 0.242100
vt 0.832700 0.305500
vt 0.832700 0.242100
vt 0.832700 0.189300
vt 0.832700 0.122700
vt 0.209300 0.189300
vt 0.209300 0.122700
vt 0.209300 0.429400
vt 0.832700 0.429400
vt 0.209300 0.530600
vt 0.832700 0.530600
vt 0.832700 0.363400
vt 0.832700 0.309200
vt 0.209300 0.363400
vt 0.209300 0.309200
vt 0.832700 0.309200
vt 0.832700 0.246000
vt 0.209300 0.309200
vt 0.209300 0.246000
vt 0.577200 1.001600
vt 0.998700 1.001600
vt 0.577200 0.547400
vt 0.998700 0.547400
vn -1.0000 0.0000 0.0000
vn 0.0000 1.0000 0.0061
vn 0.0000 -0.0006 1.0000
vn 0.0000 -0.0007 1.0000
vn 0.0000 1.0000 -0.0012
vn -0.0001 1.0000 -0.0007
vn 0.0000 -0.0036 1.0000
vn 0.0000 -0.0038 1.0000
vn 0.0000 1.0000 0.0001
vn -0.0000 1.0000 0.0002
vn -0.0001 1.0000 0.0007
vn 0.0000 -0.0053 1.0000
vn 0.0000 -0.0055 1.0000
vn 0.0000 0.0048 1.0000
vn 0.0000 1.0000 0.0059
vn -0.0001 1.0000 0.0001
vn -0.0001 1.0000 0.0002
vn -0.0001 1.0000 -0.0000
vn 0.0000 1.0000 0.0009
vn 0.0000 -0.0098 1.0000
vn 1.0000 -0.0000 0.0000
vn 0.0000 0.0000 1.0000
vn 0.0000 1.0000 -0.0002
vn 0.0000 -0.0005 1.0000
vn 0.0000 1.0000 -0.0011
vn 0.0000 1.0000 -0.0013
vn 0.0000 1.0000 -0.0014
vn -0.0001 1.0000 -0.0006
vn 0.0000 1.0000 0.0000
vn -0.0001 1.0000 0.0006
vn 0.0000 -0.0054 1.0000
vn 0.0000 1.0000 0.0060
vn 0.0000 1.0000 0.0057
vn 0.0000 -0.0131 0.9999
vn 0.0000 -0.0017 -1.0000
g m_a4.001_m_a4.001_Default_OBJ.012
usemtl Default_OBJ.012
s 1
f 1/1/1 2/2/1 3/3/1
f 4/4/1 5/5/1 2/2/1
f 6/6/1 7/7/1 8/8/1
f 9/9/1 10/10/1 7/7/1
f 11/11/1 12/12/1 10/10/1
f 13/13/1 14/14/1 15/15/1
f 16/16/1 17/17/1 5/5/1
f 18/18/1 8/8/1 17/17/1
f 19/19/1 20/20/1 12/12/1
f 14/14/1 21/21/1 15/15/1
f 22/22/1 3/3/1 23/23/1
f 23/23/1 3/3/1 21/21/1
f 3/3/1 2/2/1 21/21/1
f 2/2/1 5/5/1 21/21/1
f 5/5/1 17/17/1 21/21/1
f 17/17/1 8/8/1 21/21/1
f 8/8/1 7/7/1 21/21/1
f 7/7/1 10/10/1 21/21/1
f 10/10/1 12/12/1 21/21/1
f 12/12/1 20/20/1 21/21/1
f 24/24/1 15/15/1 20/20/1
f 21/21/1 20/20/1 15/15/1
f 25/25/2 26/26/2 27/27/2
f 26/26/2 28/28/2 27/27/2
f 29/29/3 30/30/3 31/31/4
f 30/30/3 32/32/4 31/31/4
f 33/33/5 34/34/5 35/35/5
f 35/35/5 34/34/5 36/36/6
f 37/37/7 38/38/7 39/39/8
f 38/38/7 40/40/8 39/39/8
f 41/41/9 42/42/10 43/43/9
f 42/42/10 44/44/11 43/43/9
f 45/45/12 46/46/12 47/47/13
f 46/46/12 48/48/13 47/47/13
f 49/49/14 50/50/14 51/51/14
f 50/50/14 52/52/14 51/51/14
f 53/53/15 54/54/2 55/55/15
f 54/54/2 56/56/2 55/55/15
f 57/57/16 58/58/17 59/59/18
f 58/58/17 60/60/19 59/59/18
f 61/61/20 62/62/20 63/63/20
f 62/62/20 64/64/20 63/63/20
f 65/65/21 66/66/21 67/67/21
f 68/68/21 69/69/21 66/66/21
f 70/70/21 71/71/21 69/69/21
f 72/72/21 73/73/21 74/74/21
f 75/75/21 76/76/21 73/73/21
f 77/77/21 67/67/21 78/78/21
f 79/79/21 80/80/21 71/71/21
f 81/81/21 74/74/21 80/80/21
f 82/82/21 83/83/21 84/84/21
f 84/84/21 83/83/21 85/85/21
f 86/86/21 87/87/21 76/76/21
f 87/87/21 85/85/21 76/76/21
f 76/76/21 85/85/21 73/73/21
f 73/73/21 85/85/21 74/74/21
f 74/74/21 85/85/21 80/80/21
f 80/80/21 85/85/21 71/71/21
f 71/71/21 85/85/21 69/69/21
f 69/69/21 85/85/21 66/66/21
f 66/66/21 85/85/21 67/67/21
f 67/67/21 85/85/21 78/78/21
f 85/85/21 83/83/21 78/78/21
f 88/88/21 78/78/21 83/83/21
f 89/89/9 90/90/9 91/91/9
f 90/90/9 92/92/9 91/91/9
f 93/93/22 94/94/22 95/95/22
f 96/96/22 95/95/22 94/94/22
f 97/97/23 98/98/23 99/99/23
f 98/98/23 100/100/23 99/99/23
f 101/101/24 102/102/24 103/103/4
f 102/102/24 104/104/4 103/103/4
f 105/105/25 106/106/26 107/107/27
f 107/107/27 106/106/26 108/108/28
f 109/109/7 110/110/7 111/111/8
f 110/110/7 112/112/8 111/111/8
f 113/113/29 114/114/9 115/115/29
f 114/114/9 116/116/30 115/115/29
f 117/117/31 118/118/31 119/119/13
f 118/118/31 120/120/13 119/119/13
f 121/121/14 122/122/14 123/123/14
f 122/122/14 124/124/14 123/123/14
f 125/125/32 126/126/33 127/127/32
f 126/126/33 128/128/2 127/127/32
f 129/129/18 130/130/16 131/131/17
f 130/130/16 132/132/19 131/131/17
f 133/133/34 134/134/34 135/135/34
f 134/134/34 136/136/34 135/135/34
f 137/137/35 138/138/35 139/139/35
f 138/138/35 140/140/35 139/139/35
