# Blender v2.92.0 OBJ File: ''
# www.blender.org
mtllib m_hat018.mtl
o m_a.006
v 5.408000 8.094500 2.259401
v 4.595300 8.094500 2.259401
v 5.408000 8.094500 2.791901
v 4.595300 8.094500 2.791901
v 6.978300 -0.000000 0.552700
v 3.023000 -0.000000 0.552700
v 6.448300 3.022600 1.082600
v 3.552900 3.022600 1.082600
v 3.023000 -0.000000 0.552700
v 3.023000 -0.000001 4.508000
v 3.552900 3.022600 1.082600
v 3.552900 3.022599 3.978101
v 3.023000 -0.000001 4.508000
v 6.978300 -0.000001 4.508000
v 3.552900 3.022599 3.978101
v 6.448300 3.022599 3.978101
v 6.978300 -0.000001 4.508000
v 6.978300 -0.000000 0.552700
v 6.448300 3.022599 3.978101
v 6.448300 3.022600 1.082600
v 6.448300 3.022600 1.082600
v 3.552900 3.022600 1.082600
v 5.827600 3.379600 2.048800
v 4.173600 3.379600 2.048800
v 3.552900 3.022600 1.082600
v 3.552900 3.022599 3.978101
v 4.173600 3.379600 2.048800
v 4.173600 3.379600 3.011900
v 3.552900 3.022599 3.978101
v 6.448300 3.022599 3.978101
v 4.173600 3.379600 3.011900
v 5.827600 3.379600 3.011900
v 6.448300 3.022599 3.978101
v 6.448300 3.022600 1.082600
v 5.827600 3.379600 3.011900
v 5.827600 3.379600 2.048800
v 5.827600 3.379600 2.048800
v 4.173600 3.379600 2.048800
v 5.685200 4.051300 2.136301
v 4.316000 4.051300 2.136301
v 4.173600 3.379600 2.048800
v 4.173600 3.379600 3.011900
v 4.316000 4.051300 2.136301
v 4.316000 4.051300 2.940501
v 4.173600 3.379600 3.011900
v 5.827600 3.379600 3.011900
v 4.316000 4.051300 2.940501
v 5.685200 4.051300 2.940501
v 5.827600 3.379600 2.048800
v 5.685200 4.051300 2.136301
v 5.827600 3.379600 3.011900
v 5.685200 4.051300 2.940501
v 4.595300 4.477099 2.259401
v 5.408000 4.477099 2.259401
v 4.595300 4.477099 2.791901
v 4.595300 4.477099 2.259401
v 4.595300 4.477099 2.791901
v 5.408000 4.477099 2.791901
v 5.408000 4.477099 2.791901
v 5.408000 4.477099 2.259401
v 4.592200 6.873600 2.259301
v 4.596000 6.879499 2.791501
v 4.595300 8.094500 2.259401
v 4.595300 8.094500 2.791901
v 5.408000 4.477099 2.791901
v 5.408000 4.477099 2.259401
v 5.411700 6.175099 2.791501
v 5.408300 6.177299 2.259301
v 5.403600 6.886199 2.259301
v 5.421500 6.881100 2.791501
v 6.114300 6.874599 2.259301
v 6.114300 6.874599 2.791201
v 3.911700 6.172400 2.259301
v 3.911700 6.172400 2.791201
v 3.911700 6.874599 2.259301
v 3.911700 6.874599 2.791201
v 6.114300 6.172400 2.791201
v 6.114300 6.172400 2.259301
v 6.114300 6.874599 2.791201
v 6.114300 6.874599 2.259301
v 5.421500 6.881100 2.791501
v 5.403600 6.886199 2.259301
v 5.408000 8.094500 2.791901
v 5.408000 8.094500 2.259401
v 4.595300 4.477099 2.791901
v 4.600300 6.172599 2.791501
v 4.595300 4.477099 2.259401
v 4.591000 6.168200 2.259301
v 3.911700 6.874599 2.259301
v 3.911700 6.874599 2.791201
v 4.592200 6.873600 2.259301
v 4.596000 6.879499 2.791501
v 3.911700 6.172400 2.791201
v 4.600300 6.172599 2.791501
v 3.911700 6.874599 2.791201
v 4.596000 6.879499 2.791501
v 4.595300 4.477099 2.791901
v 5.408000 4.477099 2.791901
v 5.411700 6.175099 2.791501
v 6.114300 6.172400 2.791201
v 6.114300 6.874599 2.791201
v 5.421500 6.881100 2.791501
v 4.595300 8.094500 2.791901
v 5.408000 8.094500 2.791901
v 5.408000 8.094500 2.259401
v 5.403600 6.886199 2.259301
v 4.595300 8.094500 2.259401
v 4.592200 6.873600 2.259301
v 6.114300 6.172400 2.259301
v 5.408300 6.177299 2.259301
v 6.114300 6.874599 2.259301
v 3.911700 6.874599 2.259301
v 3.911700 6.172400 2.259301
v 4.591000 6.168200 2.259301
v 5.408000 4.477099 2.259401
v 4.595300 4.477099 2.259401
vt 0.349600 0.814000
vt 0.349600 0.909600
vt 0.278400 0.814000
vt 0.278400 0.909600
vt 0.497700 0.004800
vt 0.003700 0.004800
vt 0.426400 0.420700
vt 0.063100 0.420700
vt 0.003700 0.004800
vt 0.497700 0.004800
vt 0.063100 0.420700
vt 0.426400 0.420700
vt 0.510300 0.004800
vt 0.995300 0.004800
vt 0.569700 0.420700
vt 0.924600 0.420700
vt 0.498000 0.004800
vt 0.004000 0.004800
vt 0.426400 0.420700
vt 0.063400 0.420700
vt 0.426400 0.420700
vt 0.065300 0.420700
vt 0.354400 0.533300
vt 0.148400 0.533300
vt 0.569700 0.420700
vt 0.924600 0.420700
vt 0.690400 0.533300
vt 0.806900 0.533300
vt 0.067000 0.420700
vt 0.426400 0.420700
vt 0.147500 0.533300
vt 0.354400 0.533300
vt 0.924600 0.420700
vt 0.569700 0.420700
vt 0.806900 0.533300
vt 0.690400 0.533300
vt 0.354400 0.533300
vt 0.147500 0.533300
vt 0.336200 0.611500
vt 0.156800 0.611500
vt 0.690800 0.533300
vt 0.806800 0.533300
vt 0.702200 0.611500
vt 0.795800 0.611500
vt 0.147500 0.533300
vt 0.354400 0.533300
vt 0.156800 0.611500
vt 0.336200 0.611500
vt 0.690800 0.533300
vt 0.702300 0.611500
vt 0.806900 0.533300
vt 0.795900 0.611500
vt 0.199800 0.691100
vt 0.292400 0.691100
vt 0.783900 0.694000
vt 0.713400 0.694000
vt 0.199800 0.691100
vt 0.291900 0.691100
vt 0.783900 0.694000
vt 0.713400 0.694000
vt 0.516900 0.735500
vt 0.516900 0.814000
vt 0.349600 0.735500
vt 0.349600 0.814000
vt 0.867700 0.815500
vt 0.867700 0.738300
vt 0.620300 0.815500
vt 0.620300 0.738300
vt 0.433000 0.648800
vt 0.433000 0.723200
vt 0.523400 0.648800
vt 0.523400 0.723200
vt 0.620300 0.648800
vt 0.620300 0.723200
vt 0.523400 0.648800
vt 0.523400 0.723200
vt 0.620300 0.723200
vt 0.620300 0.648800
vt 0.523400 0.723200
vt 0.523400 0.648800
vt 0.516900 0.814000
vt 0.516900 0.735500
vt 0.349600 0.814000
vt 0.349600 0.735500
vt 0.867700 0.815500
vt 0.620300 0.815500
vt 0.867700 0.738300
vt 0.620300 0.738300
vt 0.523400 0.648800
vt 0.523400 0.723200
vt 0.433000 0.648800
vt 0.433000 0.723200
vt 0.620300 0.991200
vt 0.620300 0.909600
vt 0.523000 0.991200
vt 0.523000 0.909600
vt 0.868900 0.909600
vt 0.868900 0.815500
vt 0.620300 0.815500
vt 0.620300 0.723200
vt 0.523400 0.723200
vt 0.523400 0.814000
vt 0.349600 0.909600
vt 0.349600 0.814000
vt 0.349600 0.814000
vt 0.523400 0.814000
vt 0.349600 0.909600
vt 0.523000 0.909600
vt 0.620300 0.723200
vt 0.620300 0.815500
vt 0.523400 0.723200
vt 0.523000 0.991200
vt 0.620300 0.991200
vt 0.620300 0.909600
vt 0.868900 0.815500
vt 0.868900 0.909600
vn 0.0000 1.0000 0.0000
vn 0.0000 0.1727 -0.9850
vn -0.9850 0.1727 0.0000
vn 0.0000 0.1727 0.9850
vn 0.9850 0.1727 0.0000
vn 0.0000 0.9380 -0.3466
vn -0.4986 0.8668 0.0000
vn 0.0000 0.9380 0.3466
vn 0.4986 0.8668 0.0000
vn 0.0000 0.1292 -0.9916
vn -0.9783 0.2074 0.0000
vn 0.0000 0.1057 0.9944
vn 0.0000 0.1058 0.9944
vn 0.9783 0.2074 0.0000
vn 0.0000 0.2777 -0.9607
vn -0.8362 0.5485 0.0000
vn 0.0000 0.3295 0.9442
vn 0.8381 0.5456 0.0000
vn -1.0000 0.0027 0.0068
vn -1.0000 0.0026 0.0070
vn -1.0000 -0.0006 0.0000
vn 1.0000 -0.0022 0.0000
vn 1.0000 -0.0021 -0.0001
vn 1.0000 -0.0021 -0.0000
vn 1.0000 -0.0002 -0.0064
vn 0.0163 0.9998 0.0090
vn 0.0163 0.9998 0.0089
vn 0.0094 1.0000 0.0000
vn -1.0000 0.0000 0.0000
vn 1.0000 0.0000 0.0000
vn 0.0161 0.9999 -0.0002
vn 0.9994 0.0111 -0.0334
vn 1.0000 -0.0036 0.0000
vn -1.0000 0.0029 0.0000
vn -0.9999 -0.0024 0.0170
vn 0.0015 1.0000 0.0000
vn 0.0014 1.0000 -0.0000
vn -0.0072 0.9999 -0.0110
vn -0.0004 -0.0000 1.0000
vn -0.0001 0.0001 1.0000
vn -0.0005 -0.0000 1.0000
vn 0.0000 0.0002 1.0000
vn 0.0001 0.0001 1.0000
vn 0.0004 -0.0000 1.0000
vn 0.0005 -0.0000 1.0000
vn 0.0000 -0.0003 1.0000
vn 0.0000 0.0001 -1.0000
vn -0.0000 0.0000 -1.0000
vn 0.0000 -0.0001 -1.0000
g m_a.006_m_a.006_Default_OBJ.012
usemtl Default_OBJ.012
s 1
f 1/1/1 2/2/1 3/3/1
f 2/2/1 4/4/1 3/3/1
f 5/5/2 6/6/2 7/7/2
f 6/6/2 8/8/2 7/7/2
f 9/9/3 10/10/3 11/11/3
f 10/10/3 12/12/3 11/11/3
f 13/13/4 14/14/4 15/15/4
f 14/14/4 16/16/4 15/15/4
f 17/17/5 18/18/5 19/19/5
f 18/18/5 20/20/5 19/19/5
f 21/21/6 22/22/6 23/23/6
f 22/22/6 24/24/6 23/23/6
f 25/25/7 26/26/7 27/27/7
f 26/26/7 28/28/7 27/27/7
f 29/29/8 30/30/8 31/31/8
f 30/30/8 32/32/8 31/31/8
f 33/33/9 34/34/9 35/35/9
f 34/34/9 36/36/9 35/35/9
f 37/37/10 38/38/10 39/39/10
f 38/38/10 40/40/10 39/39/10
f 41/41/11 42/42/11 43/43/11
f 42/42/11 44/44/11 43/43/11
f 45/45/12 46/46/12 47/47/13
f 46/46/12 48/48/13 47/47/13
f 49/49/14 50/50/14 51/51/14
f 51/51/14 50/50/14 52/52/14
f 40/40/10 53/53/15 39/39/10
f 39/39/10 53/53/15 54/54/15
f 44/44/11 55/55/16 43/43/11
f 43/43/11 55/55/16 56/56/16
f 47/47/13 48/48/13 57/57/17
f 48/48/13 58/58/17 57/57/17
f 52/52/14 50/50/14 59/59/18
f 50/50/14 60/60/18 59/59/18
f 61/61/19 62/62/20 63/63/20
f 62/62/20 64/64/21 63/63/20
f 65/65/22 66/66/23 67/67/24
f 66/66/23 68/68/25 67/67/24
f 69/69/26 70/70/27 71/71/27
f 71/71/27 70/70/27 72/72/28
f 73/73/29 74/74/29 75/75/29
f 74/74/29 76/76/29 75/75/29
f 77/77/30 78/78/30 79/79/30
f 78/78/30 80/80/30 79/79/30
f 81/81/27 82/82/31 83/83/32
f 82/82/31 84/84/33 83/83/32
f 85/85/34 86/86/34 87/87/34
f 87/87/34 86/86/34 88/88/35
f 89/89/36 90/90/37 91/91/37
f 91/91/37 90/90/37 92/92/38
f 93/93/39 94/94/40 95/95/39
f 95/95/39 94/94/40 96/96/41
f 97/97/42 98/98/42 94/94/40
f 98/98/42 99/99/43 94/94/40
f 100/100/44 101/101/44 99/99/43
f 101/101/44 102/102/45 99/99/43
f 103/103/46 96/96/41 104/104/46
f 104/104/46 96/96/41 102/102/45
f 96/96/41 94/94/40 102/102/45
f 94/94/40 99/99/43 102/102/45
f 105/105/47 106/106/48 107/107/47
f 107/107/47 106/106/48 108/108/48
f 109/109/48 110/110/48 111/111/48
f 111/111/48 110/110/48 106/106/48
f 106/106/48 110/110/48 108/108/48
f 112/112/48 108/108/48 113/113/48
f 113/113/48 108/108/48 114/114/48
f 108/108/48 110/110/48 114/114/48
f 110/110/48 115/115/49 114/114/48
f 115/115/49 116/116/49 114/114/48
