# Blender v2.92.0 OBJ File: ''
# www.blender.org
mtllib m_hat016.mtl
o m_a.004
v 2.780200 0.565400 1.183100
v 2.780200 0.565398 14.868000
v 4.924400 0.565400 1.183100
v 4.924000 0.565398 14.868000
v 2.780200 3.361900 1.185701
v 2.780200 2.220098 14.871900
v 2.780200 0.565400 1.183100
v 2.780200 0.565398 14.868000
v 2.780200 2.220098 14.871900
v 7.222300 2.220098 14.871900
v 2.780200 0.565398 14.868000
v 4.924000 0.565398 14.868000
v 7.222300 0.565398 14.868000
v 7.222300 3.361900 1.185701
v 7.222300 0.565400 1.183100
v 7.222300 2.220098 14.871900
v 7.222300 0.565398 14.868000
v 7.222300 0.565398 14.868000
v 7.222300 0.565400 1.183100
v 2.780200 3.361900 1.185701
v 2.780200 0.565400 1.183100
v 7.222300 3.361900 1.185701
v 7.222300 0.565400 1.183100
v 7.857900 3.362100 0.509301
v 7.222300 3.361900 1.185701
v 7.857900 2.089797 15.397700
v 7.222300 2.220098 14.871900
v 8.932800 0.000000 -0.211800
v 1.069700 0.000000 -0.211800
v 8.932800 0.565400 -0.211800
v 1.069700 0.565400 -0.211800
v 8.932800 0.565397 15.779100
v 1.069700 0.565397 15.779000
v 8.932800 -0.000003 15.779000
v 1.069700 -0.000003 15.779000
v 1.069700 0.000000 -0.211800
v 1.069700 -0.000003 15.779000
v 1.069700 0.565400 -0.211800
v 1.069700 0.565397 15.779000
v 8.932800 0.000000 -0.211800
v 8.932800 0.565400 -0.211800
v 8.932800 -0.000003 15.779000
v 8.932800 0.565397 15.779100
v 8.932800 0.565400 -0.211800
v 1.069700 0.565400 -0.211800
v 8.393200 0.906500 0.509300
v 1.609300 0.906500 0.509300
v 1.609300 0.906500 0.509300
v 1.609300 0.906497 15.397700
v 1.609300 0.906497 15.397700
v 8.393200 0.906497 15.397700
v 8.393200 0.906500 0.509300
v 8.393200 0.906497 15.397700
v 2.144600 3.362100 0.509301
v 2.144600 2.089797 15.397700
v 2.144600 2.089797 15.397700
v 7.857900 2.089797 15.397700
v 7.857900 3.362100 0.509301
v 7.857900 2.089797 15.397700
v 8.393200 0.906500 0.509300
v 1.609300 0.906500 0.509300
v 7.857900 3.362100 0.509301
v 2.144600 3.362100 0.509301
v 2.144600 2.089797 15.397700
v 7.857900 2.089797 15.397700
v 2.780200 2.220098 14.871900
v 7.222300 2.220098 14.871900
v 7.857900 3.362100 0.509301
v 2.144600 3.362100 0.509301
v 7.222300 3.361900 1.185701
v 2.780200 3.361900 1.185701
v 2.144600 3.362100 0.509301
v 2.144600 2.089797 15.397700
v 2.780200 3.361900 1.185701
v 2.780200 2.220098 14.871900
v 1.983600 2.874897 15.649800
v 8.105300 2.891397 15.624600
v 3.534700 3.941798 14.577501
v 6.537100 3.949898 14.565201
v 8.105300 2.891397 15.624600
v 8.005600 4.130500 -0.028699
v 6.537100 3.949898 14.565201
v 6.575800 5.201100 0.327801
v 1.983600 2.874897 15.649800
v 3.534700 3.941798 14.577501
v 1.883800 4.114000 -0.003599
v 3.573400 5.193000 0.340201
v 1.883800 4.114000 -0.003599
v 3.573400 5.193000 0.340201
v 8.005600 4.130500 -0.028699
v 6.575800 5.201100 0.327801
v 2.029900 3.497800 -0.174299
v 2.073700 2.200697 15.635500
v 1.883800 4.114000 -0.003599
v 1.983600 2.874897 15.649800
v 1.983600 2.874897 15.649800
v 2.073700 2.200697 15.635500
v 8.105300 2.891397 15.624600
v 8.039800 2.216797 15.611000
v 7.996000 3.513900 -0.198799
v 8.005600 4.130500 -0.028699
v 8.039800 2.216797 15.611000
v 8.105300 2.891397 15.624600
v 1.883800 4.114000 -0.003599
v 8.005600 4.130500 -0.028699
v 2.029900 3.497800 -0.174299
v 7.996000 3.513900 -0.198799
v 3.534700 3.941798 14.577501
v 6.537100 3.949898 14.565201
v 3.573400 5.193000 0.340201
v 6.575800 5.201100 0.327801
v 5.438000 4.702499 3.557601
v 4.788500 4.700799 3.560201
v 5.436400 5.162600 3.616701
v 4.786900 5.160800 3.619301
v 4.791700 4.567699 4.810401
v 4.793100 5.027899 4.864801
v 4.788500 4.700799 3.560201
v 4.786900 5.160800 3.619301
v 5.457600 4.278899 7.928200
v 5.446400 4.520099 5.364601
v 5.456100 4.738899 7.987301
v 5.447500 4.979699 5.425401
v 6.323100 4.571899 4.803301
v 5.440100 4.570399 4.797701
v 6.321500 5.031399 4.862401
v 5.452800 5.029799 4.860801
v 3.935300 4.515699 5.374801
v 3.933800 4.975199 5.433801
v 3.932800 4.565499 4.813201
v 3.931300 5.024899 4.872201
v 6.324000 4.981599 5.424001
v 6.325600 4.522099 5.364901
v 6.321500 5.031399 4.862401
v 6.323100 4.571899 4.803301
v 5.440100 4.570399 4.797701
v 5.438000 4.702499 3.557601
v 5.452800 5.029799 4.860801
v 5.436400 5.162600 3.616701
v 4.808100 4.277099 7.930901
v 4.806600 4.737198 7.990001
v 4.793300 4.517699 5.374501
v 4.799000 4.977799 5.430101
v 3.932800 4.565499 4.813201
v 3.931300 5.024899 4.872201
v 4.791700 4.567699 4.810401
v 4.793100 5.027899 4.864801
v 3.933800 4.975199 5.433801
v 4.799000 4.977799 5.430101
v 3.931300 5.024899 4.872201
v 4.793100 5.027899 4.864801
v 4.806600 4.737198 7.990001
v 5.456100 4.738899 7.987301
v 5.447500 4.979699 5.425401
v 6.324000 4.981599 5.424001
v 6.321500 5.031399 4.862401
v 5.452800 5.029799 4.860801
v 4.786900 5.160800 3.619301
v 5.436400 5.162600 3.616701
v 4.806600 4.737198 7.990001
v 4.808100 4.277099 7.930901
v 5.456100 4.738899 7.987301
v 5.457600 4.278899 7.928200
v 3.935300 4.515699 5.374801
v 4.793300 4.517699 5.374501
v 3.933800 4.975199 5.433801
v 4.799000 4.977799 5.430101
v 5.446400 4.520099 5.364601
v 6.325600 4.522099 5.364901
v 5.447500 4.979699 5.425401
v 6.324000 4.981599 5.424001
vt 0.997500 0.994300
vt 0.997500 0.003300
vt 0.909000 0.994300
vt 0.909100 0.003300
vt 0.551700 0.572100
vt 0.040500 0.481900
vt 0.551700 0.396000
vt 0.040500 0.396000
vt 0.904600 0.819900
vt 0.736600 0.819900
vt 0.904600 0.642100
vt 0.817400 0.642100
vt 0.736600 0.642100
vt 0.551700 0.572100
vt 0.551700 0.396000
vt 0.040500 0.481900
vt 0.040500 0.396000
vt 0.997500 0.003300
vt 0.997500 0.994300
vt 0.371600 0.535700
vt 0.371600 0.398700
vt 0.551700 0.572100
vt 0.551700 0.398700
vt 0.578200 0.347200
vt 0.551700 0.390200
vt 0.025400 0.347200
vt 0.040500 0.390200
vt 0.612300 0.002200
vt 0.901200 0.002200
vt 0.612300 0.053700
vt 0.901200 0.053700
vt 0.895800 0.420900
vt 0.611200 0.420900
vt 0.895800 0.367200
vt 0.611200 0.367200
vt 0.605800 0.002100
vt 0.015400 0.002100
vt 0.605800 0.054300
vt 0.015400 0.054300
vt 0.605800 0.002100
vt 0.605800 0.054300
vt 0.015400 0.002100
vt 0.015400 0.054300
vt 0.612300 0.053700
vt 0.901200 0.053700
vt 0.635800 0.096500
vt 0.882000 0.096500
vt 0.579200 0.096500
vt 0.025200 0.096500
vt 0.630600 0.459800
vt 0.879200 0.459800
vt 0.579200 0.096500
vt 0.025200 0.096500
vt 0.579300 0.345000
vt 0.025200 0.225900
vt 0.651400 0.586300
vt 0.853000 0.586300
vt 0.579300 0.345000
vt 0.025200 0.225900
vt 0.636000 0.096500
vt 0.882000 0.096500
vt 0.650500 0.305300
vt 0.862700 0.305300
vt 0.651600 0.586300
vt 0.853200 0.586300
vt 0.675100 0.634300
vt 0.828800 0.634300
vt 0.650500 0.305300
vt 0.862300 0.305300
vt 0.670400 0.360700
vt 0.838200 0.360700
vt 0.578200 0.347200
vt 0.025400 0.347200
vt 0.551700 0.390200
vt 0.040500 0.390200
vt 0.025000 0.461100
vt 0.023800 0.906300
vt 0.092800 0.580300
vt 0.092800 0.805300
vt 0.061400 0.947500
vt 0.622900 0.947500
vt 0.092800 0.805300
vt 0.622100 0.803400
vt 0.061400 0.947500
vt 0.092800 0.805300
vt 0.622900 0.947500
vt 0.622100 0.803400
vt 0.025000 0.461100
vt 0.092800 0.580300
vt 0.023800 0.906300
vt 0.092800 0.805300
vt 0.061400 0.993300
vt 0.622800 0.993300
vt 0.061400 0.947500
vt 0.622900 0.947500
vt 0.025000 0.461100
vt 0.001400 0.461100
vt 0.023800 0.906300
vt 0.001400 0.905900
vt 0.061400 0.993300
vt 0.061400 0.947500
vt 0.622800 0.993300
vt 0.622900 0.947500
vt 0.023800 0.906300
vt 0.025000 0.461100
vt 0.001400 0.905900
vt 0.001400 0.461100
vt 0.092800 0.580300
vt 0.092800 0.805300
vt 0.622100 0.581100
vt 0.622100 0.803400
vt 0.627800 0.923800
vt 0.627800 0.875000
vt 0.654100 0.923800
vt 0.654100 0.875000
vt 0.696600 0.826700
vt 0.696600 0.875000
vt 0.654100 0.826700
vt 0.654100 0.875000
vt 0.720500 0.828000
vt 0.814800 0.828000
vt 0.720500 0.875000
vt 0.814800 0.875000
vt 0.737800 0.987500
vt 0.737800 0.923800
vt 0.720600 0.987500
vt 0.720600 0.923800
vt 0.720500 0.765200
vt 0.720500 0.804300
vt 0.696600 0.765200
vt 0.696600 0.804300
vt 0.720500 0.804300
vt 0.720500 0.765200
vt 0.696600 0.804300
vt 0.696600 0.765200
vt 0.654100 0.875000
vt 0.696600 0.875000
vt 0.654100 0.826700
vt 0.696600 0.826700
vt 0.720500 0.828000
vt 0.720500 0.875000
vt 0.814800 0.828000
vt 0.814800 0.875000
vt 0.720600 0.987500
vt 0.737800 0.987500
vt 0.720600 0.923800
vt 0.737800 0.923800
vt 0.720500 0.804300
vt 0.720500 0.875000
vt 0.696600 0.804300
vt 0.696600 0.875000
vt 0.814800 0.875000
vt 0.814800 0.923800
vt 0.720600 0.923800
vt 0.720600 0.987500
vt 0.696600 0.987400
vt 0.696600 0.923800
vt 0.654100 0.875000
vt 0.654100 0.923800
vt 0.814800 0.875000
vt 0.814800 0.923800
vt 0.837400 0.875000
vt 0.837400 0.923800
vt 0.737800 0.987500
vt 0.737800 0.923800
vt 0.720600 0.987500
vt 0.720600 0.923800
vt 0.737800 0.923800
vt 0.737800 0.987500
vt 0.720600 0.923800
vt 0.720600 0.987500
vn 0.0000 1.0000 0.0000
vn 1.0000 0.0000 0.0000
vn -0.0000 0.0020 -1.0000
vn 0.0000 0.0019 -1.0000
vn -1.0000 0.0000 0.0000
vn 0.0000 -0.0009 1.0000
vn 0.1078 0.9889 0.1018
vn 0.1078 0.9890 0.1018
vn 0.1609 0.9820 0.0986
vn 0.0000 0.0000 -1.0000
vn -0.0000 -0.0000 1.0000
vn -0.0000 -0.0002 1.0000
vn 0.0000 0.8689 -0.4949
vn -0.0000 0.8690 -0.4949
vn -0.6057 0.7957 0.0000
vn 0.0000 0.6804 0.7328
vn -0.9838 0.1781 0.0182
vn -0.9838 0.1781 0.0183
vn -0.9838 0.1782 0.0183
vn 0.1078 0.9890 0.1017
vn -0.0001 0.8689 -0.4949
vn 0.0001 0.8690 -0.4949
vn -0.0000 0.9582 0.2860
vn -0.9838 0.1781 0.0184
vn -0.0000 1.0000 0.0008
vn 0.0000 1.0000 0.0005
vn 0.0011 0.6400 0.7684
vn 0.5992 0.7973 0.0722
vn 0.6783 0.7305 0.0791
vn -0.6026 0.7940 0.0795
vn -0.6179 0.7821 0.0811
vn -0.9817 -0.1895 -0.0160
vn -0.9818 -0.1895 -0.0160
vn 0.0042 -0.0171 0.9998
vn 0.9999 -0.0120 -0.0040
vn -0.6026 0.7941 0.0795
vn -0.0047 0.2234 -0.9747
vn -0.0044 0.1061 -0.9943
vn -0.0042 0.1061 -0.9943
vn -1.0000 0.0024 0.0028
vn -1.0000 0.0023 0.0028
vn -1.0000 -0.0034 0.0045
vn 1.0000 0.0033 -0.0040
vn 1.0000 0.0032 -0.0040
vn 1.0000 0.0031 -0.0040
vn 1.0000 -0.0019 -0.0035
vn 0.0061 0.1061 -0.9943
vn 0.0016 0.1132 -0.9936
vn -1.0000 -0.0032 0.0041
vn -1.0000 -0.0033 0.0041
vn -1.0000 -0.0031 0.0041
vn 1.0000 0.0032 -0.0041
vn 0.9997 -0.0225 -0.0046
vn 0.9999 0.0041 -0.0126
vn -1.0000 -0.0034 0.0054
vn -1.0000 -0.0035 0.0054
vn -0.9999 0.0100 0.0041
vn -0.0035 0.1061 -0.9944
vn -0.0035 0.1061 -0.9943
vn -0.0090 0.0976 -0.9952
vn -0.0032 0.9944 0.1061
vn -0.0032 0.9943 0.1061
vn -0.0028 0.9936 0.1125
vn -0.0027 0.9937 0.1125
vn -0.0024 0.9944 0.1061
vn -0.0024 0.9943 0.1061
vn -0.0027 0.9918 0.1275
vn 0.0044 -0.1061 0.9943
vn 0.0006 -0.1061 0.9944
vn 0.0046 -0.0999 0.9950
vn -0.0000 -0.1092 0.9940
vn 0.0019 -0.1061 0.9944
g m_a.004_m_a.004_Default_OBJ.010
usemtl Default_OBJ.010
s 1
f 1/1/1 2/2/1 3/3/1
f 2/2/1 4/4/1 3/3/1
f 5/5/2 6/6/2 7/7/2
f 6/6/2 8/8/2 7/7/2
f 9/9/3 10/10/3 11/11/4
f 11/11/4 10/10/3 12/12/3
f 10/10/3 13/13/4 12/12/3
f 14/14/5 15/15/5 16/16/5
f 16/16/5 15/15/5 17/17/5
f 4/4/1 18/18/1 3/3/1
f 3/3/1 18/18/1 19/19/1
f 20/20/6 21/21/6 22/22/6
f 21/21/6 23/23/6 22/22/6
f 24/24/7 25/25/8 26/26/7
f 26/26/7 25/25/8 27/27/9
f 28/28/10 29/29/10 30/30/10
f 29/29/10 31/31/10 30/30/10
f 32/32/11 33/33/11 34/34/12
f 33/33/11 35/35/11 34/34/12
f 36/36/5 37/37/5 38/38/10
f 37/37/5 39/39/11 38/38/10
f 40/40/2 41/41/10 42/42/2
f 42/42/2 41/41/10 43/43/11
f 44/44/10 45/45/10 46/46/13
f 45/45/10 47/47/14 46/46/13
f 38/38/10 39/39/11 48/48/14
f 39/39/11 49/49/15 48/48/14
f 33/33/11 32/32/11 50/50/15
f 32/32/11 51/51/16 50/50/15
f 41/41/10 52/52/13 43/43/11
f 43/43/11 52/52/13 53/53/16
f 54/54/17 48/48/14 55/55/18
f 48/48/14 49/49/15 55/55/18
f 50/50/15 51/51/16 56/56/19
f 51/51/16 57/57/8 56/56/19
f 58/58/20 59/59/20 52/52/13
f 53/53/16 52/52/13 59/59/20
f 60/60/21 61/61/22 62/62/10
f 61/61/22 63/63/10 62/62/10
f 64/64/17 65/65/7 66/66/23
f 65/65/7 67/67/9 66/66/23
f 68/68/7 69/69/24 70/70/7
f 69/69/24 71/71/25 70/70/7
f 72/72/18 73/73/18 74/74/26
f 73/73/18 75/75/23 74/74/26
f 76/76/27 77/77/27 78/78/27
f 77/77/27 79/79/27 78/78/27
f 80/80/27 81/81/28 82/82/27
f 81/81/28 83/83/29 82/82/27
f 84/84/27 85/85/27 86/86/30
f 86/86/30 85/85/27 87/87/31
f 88/88/30 89/89/31 90/90/28
f 90/90/28 89/89/31 91/91/29
f 92/92/32 93/93/33 94/94/30
f 93/93/33 95/95/27 94/94/30
f 96/96/27 97/97/34 98/98/27
f 97/97/34 99/99/34 98/98/27
f 100/100/35 101/101/28 102/102/35
f 102/102/35 101/101/28 103/103/27
f 104/104/36 105/105/28 106/106/37
f 107/107/37 106/106/37 105/105/28
f 108/108/27 109/109/27 110/110/31
f 110/110/31 109/109/27 111/111/29
f 112/112/38 113/113/38 114/114/39
f 113/113/38 115/115/38 114/114/39
f 116/116/40 117/117/41 118/118/41
f 117/117/41 119/119/42 118/118/41
f 120/120/43 121/121/44 122/122/45
f 122/122/45 121/121/44 123/123/46
f 124/124/47 125/125/47 126/126/47
f 125/125/47 127/127/48 126/126/47
f 128/128/49 129/129/49 130/130/50
f 129/129/49 131/131/51 130/130/50
f 132/132/52 133/133/52 134/134/52
f 133/133/52 135/135/52 134/134/52
f 136/136/53 137/137/53 138/138/53
f 138/138/53 137/137/53 139/139/54
f 140/140/55 141/141/56 142/142/55
f 141/141/56 143/143/57 142/142/55
f 144/144/58 145/145/59 146/146/58
f 146/146/58 145/145/59 147/147/60
f 148/148/61 149/149/61 150/150/61
f 150/150/61 149/149/61 151/151/62
f 152/152/63 153/153/63 149/149/61
f 153/153/63 154/154/64 149/149/61
f 155/155/65 156/156/65 154/154/64
f 156/156/65 157/157/66 154/154/64
f 158/158/67 151/151/62 159/159/67
f 159/159/67 151/151/62 157/157/66
f 151/151/62 149/149/61 157/157/66
f 149/149/61 154/154/64 157/157/66
f 160/160/68 161/161/68 162/162/68
f 161/161/68 163/163/68 162/162/68
f 164/164/69 165/165/69 166/166/69
f 166/166/69 165/165/69 167/167/70
f 168/168/71 169/169/71 170/170/71
f 171/171/72 170/170/71 169/169/71
