# Blender v2.92.0 OBJ File: ''
# www.blender.org
mtllib m_hat019.mtl
o m_a.007
v 6.140200 6.857500 2.115601
v 3.856600 6.857500 2.115601
v 6.006200 7.380499 2.115601
v 3.990600 7.380499 2.115601
v 6.006200 7.380499 2.115601
v 3.990600 7.380499 2.115601
v 6.006200 7.380499 2.758901
v 3.990600 7.380499 2.758901
v 3.856600 6.857500 2.758901
v 6.140200 6.857500 2.758901
v 3.990600 7.380499 2.758901
v 6.006200 7.380499 2.758901
v 3.856600 6.857500 2.115601
v 3.856600 6.857500 2.758901
v 3.990600 7.380499 2.115601
v 3.990600 7.380499 2.758901
v 6.140200 6.857500 2.758901
v 6.140200 6.857500 2.115601
v 6.006200 7.380499 2.758901
v 6.006200 7.380499 2.115601
v 5.338200 7.927999 1.894001
v 4.658600 7.927999 1.894001
v 5.338200 7.927999 2.947401
v 4.658600 7.927999 2.947401
v 5.338200 6.426400 1.894001
v 4.658600 6.426400 1.894001
v 5.338200 7.927999 1.894001
v 4.658600 7.927999 1.894001
v 4.658600 6.426400 1.894001
v 4.658600 6.426400 2.947401
v 4.658600 7.927999 1.894001
v 4.658600 7.927999 2.947401
v 4.658600 6.426400 2.947401
v 5.338200 6.426400 2.947401
v 4.658600 7.927999 2.947401
v 5.338200 7.927999 2.947401
v 5.338200 6.426400 2.947401
v 5.338200 6.426400 1.894001
v 5.338200 7.927999 2.947401
v 5.338200 7.927999 1.894001
v 2.229400 3.614100 1.894001
v 2.229400 3.614100 2.947401
v 2.563700 4.342299 1.894001
v 2.563700 4.342299 2.947401
v 2.229400 3.614100 1.894001
v 2.563700 4.342299 1.894001
v 3.046100 3.614100 1.894001
v 2.926000 4.393000 1.894001
v 2.926000 4.393000 2.947401
v 2.926000 4.393000 1.894001
v 2.563700 4.342299 2.947401
v 2.563700 4.342299 1.894001
v 2.229400 3.614100 2.947401
v 3.046100 3.614100 2.947401
v 2.563700 4.342299 2.947401
v 2.926000 4.393000 2.947401
v 7.767400 3.614100 2.947401
v 7.767400 3.614100 1.894001
v 7.433100 4.342299 2.947401
v 7.433100 4.342299 1.894001
v 7.070800 4.393000 1.894001
v 7.070800 4.393000 2.947401
v 7.433100 4.342299 1.894001
v 7.433100 4.342299 2.947401
v 7.767400 3.614100 2.947401
v 7.433100 4.342299 2.947401
v 6.950700 3.614100 2.947401
v 7.070800 4.393000 2.947401
v 7.767400 3.614100 1.894001
v 6.950700 3.614100 1.894001
v 7.433100 4.342299 1.894001
v 7.070800 4.393000 1.894001
v 2.926000 4.393000 1.894001
v 2.926000 4.393000 2.947401
v 4.658600 6.426400 1.894001
v 4.658600 6.426400 2.947401
v 7.070800 4.393000 2.947401
v 7.070800 4.393000 1.894001
v 5.338200 6.426400 2.947401
v 5.338200 6.426400 1.894001
v 2.724200 -0.000000 1.894000
v 2.724200 -0.000000 2.947400
v 3.046100 3.614100 1.894001
v 3.046100 3.614100 2.947401
v 7.272600 -0.000000 2.947400
v 7.272600 -0.000000 1.894000
v 6.950700 3.614100 2.947401
v 6.950700 3.614100 1.894001
v 7.272600 -0.000000 1.894000
v 2.724200 -0.000000 1.894000
v 6.950700 3.614100 1.894001
v 3.046100 3.614100 1.894001
v 7.070800 4.393000 1.894001
v 5.338200 6.426400 1.894001
v 2.926000 4.393000 1.894001
v 4.658600 6.426400 1.894001
v 2.724200 -0.000000 2.947400
v 7.272600 -0.000000 2.947400
v 3.046100 3.614100 2.947401
v 6.950700 3.614100 2.947401
v 2.926000 4.393000 2.947401
v 4.658600 6.426400 2.947401
v 7.070800 4.393000 2.947401
v 5.338200 6.426400 2.947401
vt 0.247800 0.882400
vt 0.018600 0.882400
vt 0.231800 0.939200
vt 0.036000 0.939200
vt 0.231800 1.000000
vt 0.036000 1.000000
vt 0.231800 0.939200
vt 0.036000 0.939200
vt 0.018600 0.882400
vt 0.247800 0.882400
vt 0.036000 0.939200
vt 0.231800 0.939200
vt 0.285700 1.000000
vt 0.285700 0.939200
vt 0.231800 1.000000
vt 0.231800 0.939200
vt 0.285700 0.939200
vt 0.285700 1.000000
vt 0.231800 0.939200
vt 0.231800 1.000000
vt 0.198600 0.772200
vt 0.266600 0.772200
vt 0.198600 0.876800
vt 0.266600 0.876800
vt 0.198200 0.622400
vt 0.269200 0.622400
vt 0.198200 0.771900
vt 0.269200 0.771900
vt 0.269200 0.622400
vt 0.364600 0.622400
vt 0.269200 0.771900
vt 0.364600 0.771900
vt 0.269200 0.622400
vt 0.198700 0.622600
vt 0.269200 0.771900
vt 0.198700 0.771900
vt 0.364600 0.622400
vt 0.269200 0.622400
vt 0.364600 0.771900
vt 0.269200 0.771900
vt 0.480100 0.710600
vt 0.386900 0.710600
vt 0.480100 0.784600
vt 0.386900 0.784600
vt 0.490500 0.710600
vt 0.530300 0.780200
vt 0.583200 0.710600
vt 0.564400 0.781500
vt 0.386900 0.820800
vt 0.480100 0.820800
vt 0.386900 0.784600
vt 0.480100 0.784600
vt 0.490500 0.710600
vt 0.583200 0.710600
vt 0.530300 0.780200
vt 0.564400 0.781500
vt 0.386900 0.710600
vt 0.480100 0.710600
vt 0.386900 0.784600
vt 0.480100 0.784600
vt 0.480100 0.820800
vt 0.386900 0.820800
vt 0.480100 0.784600
vt 0.386900 0.784600
vt 0.490500 0.710600
vt 0.530300 0.780200
vt 0.583200 0.710600
vt 0.564400 0.781500
vt 0.490500 0.710600
vt 0.583200 0.710600
vt 0.530300 0.780200
vt 0.564400 0.781500
vt 0.440800 0.421900
vt 0.534200 0.421900
vt 0.440800 0.625900
vt 0.534000 0.625900
vt 0.534200 0.421900
vt 0.440800 0.421900
vt 0.534000 0.625900
vt 0.440800 0.625900
vt 0.464000 0.004100
vt 0.567700 0.004100
vt 0.464200 0.350600
vt 0.567700 0.350600
vt 0.464200 0.004100
vt 0.567700 0.004100
vt 0.464200 0.350600
vt 0.567700 0.350600
vt 0.005300 0.004100
vt 0.459600 0.004100
vt 0.043400 0.350600
vt 0.413300 0.350600
vt 0.027700 0.419300
vt 0.200500 0.622500
vt 0.437400 0.417200
vt 0.269200 0.622400
vt 0.543100 0.373700
vt 0.996600 0.373700
vt 0.582700 0.710600
vt 0.956600 0.710600
vt 0.564400 0.781500
vt 0.732100 0.987600
vt 0.971000 0.785800
vt 0.808500 0.987600
vn 0.0000 0.0000 -1.0000
vn 0.0000 1.0000 0.0000
vn 0.0000 0.0000 1.0000
vn -0.9687 0.2482 0.0000
vn 0.0000 1.0000 0.0003
vn 0.9687 0.2482 0.0000
vn -1.0000 0.0000 0.0000
vn 1.0000 0.0000 0.0000
vn -0.9088 0.4172 0.0000
vn -0.1391 0.9903 0.0000
vn -0.1386 0.9904 0.0000
vn -0.9088 0.4173 -0.0000
vn 0.9088 0.4172 0.0000
vn 0.1389 0.9903 -0.0000
vn 0.9088 0.4173 0.0000
vn -0.7612 0.6486 0.0000
vn 0.7612 0.6486 0.0000
vn -0.9961 0.0887 0.0000
vn 0.9961 0.0887 0.0000
g m_a.007_m_a.007_Default_OBJ.013
usemtl Default_OBJ.013
s 1
f 1/1/1 2/2/1 3/3/1
f 2/2/1 4/4/1 3/3/1
f 5/5/2 6/6/2 7/7/2
f 6/6/2 8/8/2 7/7/2
f 9/9/3 10/10/3 11/11/3
f 12/12/3 11/11/3 10/10/3
f 13/13/4 14/14/4 15/15/5
f 14/14/4 16/16/2 15/15/5
f 17/17/6 18/18/6 19/19/2
f 18/18/6 20/20/2 19/19/2
f 21/21/2 22/22/2 23/23/2
f 22/22/2 24/24/2 23/23/2
f 25/25/1 26/26/1 27/27/1
f 26/26/1 28/28/1 27/27/1
f 29/29/7 30/30/7 31/31/7
f 30/30/7 32/32/7 31/31/7
f 33/33/3 34/34/3 35/35/3
f 34/34/3 36/36/3 35/35/3
f 37/37/8 38/38/8 39/39/8
f 38/38/8 40/40/8 39/39/8
f 41/41/9 42/42/9 43/43/9
f 42/42/9 44/44/9 43/43/9
f 45/45/1 46/46/1 47/47/1
f 48/48/1 47/47/1 46/46/1
f 49/49/10 50/50/11 51/51/12
f 50/50/11 52/52/12 51/51/12
f 53/53/3 54/54/3 55/55/3
f 54/54/3 56/56/3 55/55/3
f 57/57/13 58/58/13 59/59/13
f 58/58/13 60/60/13 59/59/13
f 61/61/14 62/62/14 63/63/15
f 62/62/14 64/64/15 63/63/15
f 65/65/3 66/66/3 67/67/3
f 68/68/3 67/67/3 66/66/3
f 69/69/1 70/70/1 71/71/1
f 70/70/1 72/72/1 71/71/1
f 73/73/16 74/74/16 75/75/16
f 74/74/16 76/76/16 75/75/16
f 77/77/17 78/78/17 79/79/17
f 78/78/17 80/80/17 79/79/17
f 81/81/18 82/82/18 83/83/18
f 82/82/18 84/84/18 83/83/18
f 85/85/19 86/86/19 87/87/19
f 86/86/19 88/88/19 87/87/19
f 89/89/1 90/90/1 91/91/1
f 90/90/1 92/92/1 91/91/1
f 91/91/1 92/92/1 93/93/1
f 93/93/1 92/92/1 94/94/1
f 92/92/1 95/95/1 94/94/1
f 95/95/1 96/96/1 94/94/1
f 97/97/3 98/98/3 99/99/3
f 98/98/3 100/100/3 99/99/3
f 99/99/3 100/100/3 101/101/3
f 101/101/3 100/100/3 102/102/3
f 100/100/3 103/103/3 102/102/3
f 103/103/3 104/104/3 102/102/3
