# Blender v2.92.0 OBJ File: ''
# www.blender.org
mtllib m_hal009.mtl
o m_hd
v 2.389800 1.094200 2.496400
v 4.161500 1.094200 2.496400
v 3.288400 1.094200 0.940000
v 2.389800 1.094200 2.496400
v 3.267200 1.094199 4.015900
v 4.161500 1.094200 2.496400
v 2.389800 1.094200 2.496400
v 1.520000 1.094199 4.002900
v 3.267200 1.094199 4.015900
v 2.389800 1.094200 2.496400
v 0.637500 1.094200 2.496400
v 1.520000 1.094199 4.002900
v 2.389800 1.094200 2.496400
v 1.510100 1.094200 0.972600
v 0.637500 1.094200 2.496400
v 2.389800 1.094200 2.496400
v 3.288400 1.094200 0.940000
v 1.510100 1.094200 0.972600
v 0.437400 0.463099 5.878000
v 4.342200 0.463099 5.878000
v 1.520000 1.094199 4.002900
v 1.520000 1.094199 4.002900
v 4.342200 0.463099 5.878000
v 3.267200 1.094199 4.015900
v 4.342200 0.463099 5.878000
v 6.294600 0.463100 2.496400
v 3.267200 1.094199 4.015900
v 4.161500 1.094200 2.496400
v 3.267200 1.094199 4.015900
v 6.294600 0.463100 2.496400
v 6.294600 0.463100 2.496400
v 4.342200 0.463100 -0.885300
v 4.161500 1.094200 2.496400
v 3.288400 1.094200 0.940000
v 4.161500 1.094200 2.496400
v 4.342200 0.463100 -0.885300
v 4.342200 0.463100 -0.885300
v 0.437400 0.463100 -0.885300
v 3.288400 1.094200 0.940000
v 1.510100 1.094200 0.972600
v 3.288400 1.094200 0.940000
v 0.437400 0.463100 -0.885300
v 0.437400 0.463100 -0.885300
v -1.514900 0.463100 2.496400
v 1.510100 1.094200 0.972600
v 0.637500 1.094200 2.496400
v 1.510100 1.094200 0.972600
v -1.514900 0.463100 2.496400
v -1.514900 0.463100 2.496400
v 0.437400 0.463099 5.878000
v 0.637500 1.094200 2.496400
v 1.520000 1.094199 4.002900
v 0.637500 1.094200 2.496400
v 0.437400 0.463099 5.878000
vt 0.162000 0.383466
vt 0.242300 0.522166
vt 0.081600 0.524166
vt 0.162000 0.383466
vt 0.241500 0.520766
vt 0.082700 0.522166
vt 0.162000 0.383466
vt 0.240800 0.519666
vt 0.083500 0.520766
vt 0.162000 0.383466
vt 0.241400 0.520666
vt 0.084200 0.519666
vt 0.162000 0.383466
vt 0.241700 0.521166
vt 0.083600 0.520666
vt 0.162000 0.383466
vt 0.243400 0.524166
vt 0.083300 0.521166
vt 0.339000 0.689066
vt -0.012700 0.689066
vt 0.240800 0.519666
vt 0.240800 0.519666
vt -0.012700 0.689066
vt 0.083500 0.520766
vt 0.339000 0.689066
vt -0.012700 0.689066
vt 0.241500 0.520766
vt 0.082700 0.522166
vt 0.241500 0.520766
vt -0.012700 0.689066
vt 0.339000 0.689066
vt -0.012700 0.689066
vt 0.242300 0.522166
vt 0.081600 0.524166
vt 0.242300 0.522166
vt -0.012700 0.689066
vt 0.339000 0.689066
vt -0.012700 0.689066
vt 0.243400 0.524166
vt 0.083300 0.521166
vt 0.243400 0.524166
vt -0.012700 0.689066
vt 0.339000 0.689066
vt -0.012700 0.689066
vt 0.241700 0.521166
vt 0.083600 0.520666
vt 0.241700 0.521166
vt -0.012700 0.689066
vt 0.339000 0.689066
vt -0.012700 0.689066
vt 0.241400 0.520666
vt 0.084200 0.519666
vt 0.241400 0.520666
vt -0.012700 0.689066
vn 0.0000 1.0000 0.0000
vn 0.0000 0.9478 0.3190
vn -0.0024 0.9467 0.3222
vn 0.2780 0.9471 0.1605
vn 0.2798 0.9458 0.1647
vn 0.2800 0.9463 -0.1616
vn 0.2868 0.9444 -0.1609
vn 0.0000 0.9451 -0.3268
vn -0.0058 0.9479 -0.3186
vn -0.2785 0.9469 -0.1608
vn -0.2778 0.9474 -0.1591
vn -0.2777 0.9472 0.1603
vn -0.2743 0.9481 0.1607
g m_hd_m_hd_Default_OBJ.007
usemtl Default_OBJ.007
s 1
f 1/1/1 2/2/1 3/3/1
f 4/4/1 5/5/1 6/6/1
f 7/7/1 8/8/1 9/9/1
f 10/10/1 11/11/1 12/12/1
f 13/13/1 14/14/1 15/15/1
f 16/16/1 17/17/1 18/18/1
f 19/19/2 20/20/2 21/21/2
f 22/22/3 23/23/3 24/24/3
f 25/25/4 26/26/4 27/27/4
f 28/28/5 29/29/5 30/30/5
f 31/31/6 32/32/6 33/33/6
f 34/34/7 35/35/7 36/36/7
f 37/37/8 38/38/8 39/39/8
f 40/40/9 41/41/9 42/42/9
f 43/43/10 44/44/10 45/45/10
f 46/46/11 47/47/11 48/48/11
f 49/49/12 50/50/12 51/51/12
f 52/52/13 53/53/13 54/54/13
