# Blender v2.92.0 OBJ File: ''
# www.blender.org
mtllib m_hao018.mtl
o m_a.006
v 0.780100 0.412096 9.544000
v 0.758800 0.216896 9.538000
v 2.094100 0.259496 9.840600
v 2.072800 0.064296 9.834700
v 0.758800 0.216896 9.538000
v 2.478900 0.261500 1.942500
v 2.072800 0.064296 9.834700
v 3.792900 0.108900 2.239200
v 2.478900 0.261500 1.942500
v 2.500200 0.456700 1.948500
v 3.792900 0.108900 2.239200
v 3.814200 0.304100 2.245200
v 2.500200 0.456700 1.948500
v 0.780100 0.412096 9.544000
v 3.814200 0.304100 2.245200
v 2.094100 0.259496 9.840600
v 2.094100 0.259496 9.840600
v 2.072800 0.064296 9.834700
v 3.814200 0.304100 2.245200
v 3.792900 0.108900 2.239200
v 2.500200 0.456700 1.948500
v 2.478900 0.261500 1.942500
v 0.780100 0.412096 9.544000
v 0.758800 0.216896 9.538000
v 2.683800 0.913796 9.902800
v 2.659200 0.719096 9.911500
v 3.997800 0.761196 10.199400
v 3.973300 0.566596 10.208200
v 2.659200 0.719096 9.911500
v 4.309500 0.169700 2.320200
v 3.973300 0.566596 10.208200
v 5.623500 0.017100 2.616900
v 4.309500 0.169700 2.320200
v 4.334000 0.364400 2.311500
v 5.623500 0.017100 2.616900
v 5.648000 0.211800 2.608200
v 4.334000 0.364400 2.311500
v 2.683800 0.913796 9.902800
v 5.648000 0.211800 2.608200
v 3.997800 0.761196 10.199400
v 3.997800 0.761196 10.199400
v 3.973300 0.566596 10.208200
v 5.648000 0.211800 2.608200
v 5.623500 0.017100 2.616900
v 4.334000 0.364400 2.311500
v 4.309500 0.169700 2.320200
v 2.683800 0.913796 9.902800
v 2.659200 0.719096 9.911500
v 2.907400 0.315296 9.315200
v 2.892200 0.119796 9.304900
v 4.235100 0.225498 9.056000
v 4.219800 0.029898 9.045700
v 2.892200 0.119796 9.304900
v 1.436400 0.634600 1.671600
v 4.219800 0.029898 9.045700
v 2.764100 0.544800 1.412300
v 1.436400 0.634600 1.671600
v 1.451700 0.830200 1.681900
v 2.764100 0.544800 1.412300
v 2.779300 0.740300 1.422600
v 1.451700 0.830200 1.681900
v 2.907400 0.315296 9.315200
v 2.779300 0.740300 1.422600
v 4.235100 0.225498 9.056000
v 4.235100 0.225498 9.056000
v 4.219800 0.029898 9.045700
v 2.779300 0.740300 1.422600
v 2.764100 0.544800 1.412300
v 1.451700 0.830200 1.681900
v 1.436400 0.634600 1.671600
v 2.907400 0.315296 9.315200
v 2.892200 0.119796 9.304900
v 0.625800 0.098198 7.714600
v 0.625800 -0.098202 7.714600
v 1.981500 0.098198 7.714600
v 1.981500 -0.098202 7.714600
v 0.625800 -0.098202 7.714600
v 0.625800 -0.098200 -0.073300
v 1.981500 -0.098202 7.714600
v 1.981500 -0.098200 -0.073300
v 0.625800 -0.098200 -0.073300
v 0.625800 0.098200 -0.073300
v 1.981500 -0.098200 -0.073300
v 1.981500 0.098200 -0.073300
v 0.625800 0.098200 -0.073300
v 0.625800 0.098198 7.714600
v 1.981500 0.098200 -0.073300
v 1.981500 0.098198 7.714600
v 1.981500 0.098198 7.714600
v 1.981500 -0.098202 7.714600
v 1.981500 0.098200 -0.073300
v 1.981500 -0.098200 -0.073300
v 0.625800 0.098200 -0.073300
v 0.625800 -0.098200 -0.073300
v 0.625800 0.098198 7.714600
v 0.625800 -0.098202 7.714600
vt 0.081400 0.028013
vt 0.082500 0.001413
vt 0.153900 0.027513
vt 0.152800 0.001413
vt 0.011700 0.053813
vt 0.011700 0.346813
vt 0.088600 0.057013
vt 0.089800 0.346813
vt 0.082500 0.001413
vt 0.081400 0.028013
vt 0.152800 0.001413
vt 0.153900 0.027513
vt 0.011700 0.346813
vt 0.011700 0.053813
vt 0.089800 0.346813
vt 0.088600 0.057013
vt -0.122800 0.369413
vt -0.122800 0.103713
vt -0.115000 0.369413
vt -0.115000 0.103713
vt -0.115000 0.369413
vt -0.115000 0.103713
vt -0.122800 0.369413
vt -0.122800 0.103713
vt 0.081400 0.028013
vt 0.082500 0.001413
vt 0.153900 0.027513
vt 0.152800 0.001413
vt 0.011700 0.053813
vt 0.011700 0.346813
vt 0.088600 0.057013
vt 0.089800 0.346813
vt 0.082500 0.001413
vt 0.081400 0.028013
vt 0.152800 0.001413
vt 0.153900 0.027513
vt 0.011700 0.346813
vt 0.011700 0.053813
vt 0.089800 0.346813
vt 0.088600 0.057013
vt -0.122800 0.369413
vt -0.122800 0.103713
vt -0.115000 0.369413
vt -0.115000 0.103713
vt -0.115000 0.369413
vt -0.115000 0.103713
vt -0.122800 0.369413
vt -0.122800 0.103713
vt 0.081400 0.028013
vt 0.082500 0.001413
vt 0.153900 0.027513
vt 0.152800 0.001413
vt 0.092800 0.053813
vt 0.092800 0.346813
vt 0.169700 0.057013
vt 0.170900 0.346813
vt 0.082500 0.001413
vt 0.081400 0.028013
vt 0.152800 0.001413
vt 0.153900 0.027513
vt 0.092800 0.346813
vt 0.092800 0.053813
vt 0.170900 0.346813
vt 0.169700 0.057013
vt -0.122800 0.369413
vt -0.122800 0.103713
vt -0.115000 0.369413
vt -0.115000 0.103713
vt -0.115000 0.369413
vt -0.115000 0.103713
vt -0.122800 0.369413
vt -0.122800 0.103713
vt 0.594300 0.502413
vt 0.594300 0.488613
vt 0.666000 0.502413
vt 0.666000 0.488613
vt 0.492000 0.021613
vt 0.492000 0.505513
vt 0.554700 0.018613
vt 0.554700 0.503013
vt 0.594300 0.488613
vt 0.594300 0.502413
vt 0.666000 0.488613
vt 0.666000 0.502413
vt 0.492000 0.505513
vt 0.492000 0.021613
vt 0.554700 0.503013
vt 0.554700 0.018613
vt 0.673600 0.492913
vt 0.673600 0.022613
vt 0.683400 0.492913
vt 0.683400 0.022613
vt 0.683400 0.492913
vt 0.683400 0.022613
vt 0.673600 0.492913
vt 0.673600 0.022613
vn -0.2208 -0.0059 0.9753
vn -0.2208 -0.0058 0.9753
vn -0.2208 -0.0054 0.9753
vn -0.1085 -0.9936 -0.0304
vn 0.2209 0.0059 -0.9753
vn 0.2209 0.0054 -0.9753
vn 0.1085 0.9936 0.0304
vn 0.9693 -0.1124 0.2188
vn 0.9693 -0.1125 0.2188
vn -0.9693 0.1125 -0.2188
vn -0.2119 0.0703 0.9748
vn -0.2119 0.0704 0.9748
vn -0.2119 0.0707 0.9747
vn -0.2119 0.0708 0.9747
vn -0.1251 -0.9911 0.0445
vn -0.1252 -0.9911 0.0445
vn 0.2119 -0.0702 -0.9748
vn 0.2119 -0.0706 -0.9747
vn 0.1252 0.9911 -0.0445
vn 0.9692 -0.1127 0.2188
vn 0.9693 -0.1121 0.2188
vn 0.9692 -0.1128 0.2188
vn -0.9692 0.1127 -0.2188
vn -0.9693 0.1122 -0.2188
vn -0.9692 0.1127 -0.2189
vn 0.1869 -0.0662 0.9802
vn 0.1869 -0.0662 0.9801
vn -0.0776 -0.9956 -0.0523
vn -0.0776 -0.9956 -0.0524
vn -0.1869 0.0662 -0.9801
vn -0.1870 0.0662 -0.9801
vn 0.0776 0.9956 0.0524
vn 0.9793 -0.0665 -0.1913
vn 0.9793 -0.0665 -0.1912
vn 0.9793 -0.0666 -0.1912
vn 0.9793 -0.0661 -0.1912
vn -0.9793 0.0665 0.1912
vn -0.9793 0.0661 0.1912
vn 0.0000 0.0000 1.0000
vn 0.0000 -1.0000 -0.0000
vn 0.0000 0.0000 -1.0000
vn 0.0000 1.0000 0.0000
vn 1.0000 0.0000 0.0000
vn -1.0000 0.0000 0.0000
g m_a.006_m_a.006_Default_OBJ.006
usemtl Default_OBJ.006
s 1
f 1/1/1 2/2/2 3/3/3
f 3/3/3 2/2/2 4/4/3
f 5/5/4 6/6/4 7/7/4
f 7/7/4 6/6/4 8/8/4
f 9/9/5 10/10/6 11/11/5
f 11/11/5 10/10/6 12/12/5
f 13/13/7 14/14/7 15/15/7
f 15/15/7 14/14/7 16/16/7
f 17/17/8 18/18/8 19/19/9
f 19/19/9 18/18/8 20/20/9
f 21/21/10 22/22/10 23/23/10
f 23/23/10 22/22/10 24/24/10
f 25/25/11 26/26/12 27/27/13
f 27/27/13 26/26/12 28/28/14
f 29/29/15 30/30/16 31/31/15
f 31/31/15 30/30/16 32/32/16
f 33/33/17 34/34/18 35/35/17
f 35/35/17 34/34/18 36/36/18
f 37/37/19 38/38/19 39/39/19
f 39/39/19 38/38/19 40/40/19
f 41/41/20 42/42/21 43/43/22
f 43/43/22 42/42/21 44/44/9
f 45/45/23 46/46/24 47/47/25
f 47/47/25 46/46/24 48/48/25
f 49/49/26 50/50/26 51/51/27
f 51/51/27 50/50/26 52/52/27
f 53/53/28 54/54/29 55/55/28
f 55/55/28 54/54/29 56/56/29
f 57/57/30 58/58/30 59/59/31
f 59/59/31 58/58/30 60/60/31
f 61/61/32 62/62/32 63/63/32
f 63/63/32 62/62/32 64/64/32
f 65/65/33 66/66/34 67/67/35
f 67/67/35 66/66/34 68/68/36
f 69/69/37 70/70/37 71/71/38
f 71/71/38 70/70/37 72/72/38
f 73/73/39 74/74/39 75/75/39
f 75/75/39 74/74/39 76/76/39
f 77/77/40 78/78/40 79/79/40
f 79/79/40 78/78/40 80/80/40
f 81/81/41 82/82/41 83/83/41
f 83/83/41 82/82/41 84/84/41
f 85/85/42 86/86/42 87/87/42
f 87/87/42 86/86/42 88/88/42
f 89/89/43 90/90/43 91/91/43
f 91/91/43 90/90/43 92/92/43
f 93/93/44 94/94/44 95/95/44
f 95/95/44 94/94/44 96/96/44
