# Blender v2.92.0 OBJ File: ''
# www.blender.org
mtllib m_hat035.mtl
o m_a.017
v 21.570801 15.718300 1.516402
v 22.065201 -0.000001 4.546300
v 22.065201 15.644200 1.116102
v 21.570801 -0.000001 4.946600
v 21.076401 15.644200 1.116102
v 21.570801 -0.000001 4.946600
v 21.570801 15.718300 1.516402
v 21.076401 -0.000001 4.546300
v 21.570801 15.570900 0.715903
v 21.076401 -0.000001 4.546300
v 21.076401 15.644200 1.116102
v 21.570801 -0.000001 4.146100
v 22.065201 15.644200 1.116102
v 22.065201 -0.000001 4.546300
v 1.013600 15.718300 1.516402
v 0.519200 15.644200 1.116102
v 0.519200 -0.000001 4.546300
v 1.013600 -0.000001 4.946600
v 1.508000 15.644200 1.116102
v 1.013600 15.718300 1.516402
v 1.013600 -0.000001 4.946600
v 1.508000 -0.000001 4.546300
v 1.013600 15.570900 0.715903
v 1.508000 15.644200 1.116102
v 1.508000 -0.000001 4.546300
v 1.013600 -0.000001 4.146100
v 0.519200 15.644200 1.116102
v 0.519200 -0.000001 4.546300
v 13.545100 14.517400 0.367902
v 11.292200 15.540600 0.497803
v 18.050800 14.517400 0.367902
v 11.292200 12.095400 0.063102
v 9.039300 14.517400 0.367902
v 22.556601 15.540600 0.497803
v 22.556601 14.517400 0.367902
v 20.303699 12.095400 0.063102
v 15.797900 12.095400 0.063102
v 22.556601 17.189098 9.350102
v 11.292200 20.816196 17.792303
v 22.556601 20.816196 17.792303
v 11.292200 17.189098 9.350102
v 4.533600 14.517400 0.367902
v 11.292200 15.540600 0.497803
v 9.039300 14.517400 0.367902
v 13.545100 14.517400 0.367902
v 11.292200 12.095400 0.063102
v 11.292200 15.540600 0.497803
v 2.280700 12.095400 0.063102
v 0.027800 14.517400 0.367902
v 0.027800 15.540600 0.497803
v 6.786500 12.095400 0.063102
v 0.027800 17.189098 9.350102
v 0.027800 20.816196 17.792303
v 11.292200 20.816196 17.792303
v 11.292200 17.189098 9.350102
v 18.050800 14.497300 0.393002
v 11.292200 15.520500 0.522403
v 13.545100 14.497300 0.393002
v 9.039300 14.497300 0.393002
v 11.292200 12.075300 0.087702
v 20.303699 12.075300 0.087702
v 22.556601 14.497300 0.393002
v 22.556601 15.520500 0.522403
v 15.797900 12.075300 0.087702
v 22.556601 20.796097 17.817003
v 11.292200 20.796097 17.817003
v 22.556601 17.168999 9.374702
v 11.292200 17.168999 9.374702
v 9.039300 14.497300 0.393002
v 11.292200 15.520500 0.522403
v 4.533600 14.497300 0.393002
v 11.292200 15.520500 0.522403
v 11.292200 12.075300 0.087702
v 13.545100 14.497300 0.393002
v 0.027800 15.520500 0.522403
v 0.027800 14.497300 0.393002
v 2.280700 12.075300 0.087702
v 6.786500 12.075300 0.087702
v 11.292200 20.796097 17.817003
v 0.027800 20.796097 17.817003
v 0.027800 17.168999 9.374702
v 11.292200 17.168999 9.374702
vt 0.886202 0.866127
vt 0.438202 0.855427
vt 0.886302 0.855427
vt 0.438102 0.866127
vt 0.886302 0.876327
vt 0.438202 0.866127
vt 0.886302 0.866127
vt 0.438202 0.876327
vt 0.886302 0.866127
vt 0.438202 0.876327
vt 0.886302 0.876327
vt 0.438202 0.866127
vt 0.886302 0.855427
vt 0.438202 0.855427
vt 0.886202 0.866127
vt 0.886302 0.855427
vt 0.438202 0.855427
vt 0.438102 0.866127
vt 0.886302 0.876327
vt 0.886302 0.866127
vt 0.438202 0.866127
vt 0.438202 0.876327
vt 0.886302 0.866127
vt 0.886302 0.876327
vt 0.438202 0.876327
vt 0.438202 0.866127
vt 0.886302 0.855427
vt 0.438202 0.855427
vt 0.675602 0.312327
vt 0.653102 0.340127
vt 0.722002 0.311627
vt 0.653102 0.293327
vt 0.675702 0.312327
vt 0.767802 0.339927
vt 0.767902 0.312127
vt 0.745102 0.292827
vt 0.698602 0.293227
vt 0.767802 0.426427
vt 0.653102 0.513327
vt 0.767902 0.513327
vt 0.653102 0.426427
vt 0.722102 0.311627
vt 0.653102 0.340127
vt 0.675702 0.312327
vt 0.675602 0.312327
vt 0.653102 0.293327
vt 0.653102 0.340127
vt 0.745202 0.292827
vt 0.767902 0.312127
vt 0.767902 0.339927
vt 0.698702 0.293227
vt 0.767902 0.426427
vt 0.767902 0.513327
vt 0.653202 0.513327
vt 0.653102 0.426427
vt 0.722002 0.311627
vt 0.653102 0.340127
vt 0.675602 0.312327
vt 0.675702 0.312327
vt 0.653102 0.293327
vt 0.745102 0.292827
vt 0.767902 0.312127
vt 0.767802 0.339927
vt 0.698602 0.293227
vt 0.767902 0.513327
vt 0.653102 0.513327
vt 0.767802 0.426427
vt 0.653102 0.426427
vt 0.675702 0.312327
vt 0.653102 0.340127
vt 0.722102 0.311627
vt 0.653102 0.340127
vt 0.653102 0.293327
vt 0.675602 0.312327
vt 0.767902 0.339927
vt 0.767902 0.312127
vt 0.745202 0.292827
vt 0.698702 0.293227
vt 0.653202 0.513327
vt 0.767902 0.513327
vt 0.767902 0.426427
vt 0.653102 0.426427
vn 0.2574 0.2063 0.9440
vn 0.9248 0.0811 0.3718
vn 0.9236 -0.0825 -0.3743
vn -0.2620 0.2061 0.9428
vn -0.9237 0.0817 0.3742
vn -0.9247 -0.0820 -0.3718
vn -0.2573 -0.2076 -0.9438
vn -0.9247 -0.0819 -0.3719
vn 0.2619 -0.2073 -0.9426
vn -0.2574 0.2063 0.9440
vn -0.9236 -0.0825 -0.3743
vn -0.9248 0.0811 0.3718
vn 0.2620 0.2061 0.9428
vn 0.9237 0.0817 0.3742
vn 0.9247 -0.0820 -0.3718
vn 0.2573 -0.2076 -0.9438
vn 0.9247 -0.0819 -0.3719
vn -0.2619 -0.2073 -0.9426
vn 0.0000 0.1257 -0.9921
vn -0.0000 0.3954 -0.9185
vn 0.0000 0.1256 -0.9921
vn 0.0004 0.1252 -0.9921
vn -0.0002 0.5740 -0.8188
vn -0.0012 0.1259 -0.9920
vn -0.0005 0.1255 -0.9921
vn 0.0000 0.1249 -0.9922
vn 0.0000 0.9454 -0.3260
vn 0.0000 0.9188 -0.3947
vn 0.0000 0.9669 -0.2550
vn -0.0004 0.1252 -0.9921
vn 0.0004 0.1255 -0.9921
vn 0.0012 0.1259 -0.9920
vn 0.0003 0.5740 -0.8188
vn -0.0000 -0.1253 0.9921
vn 0.0000 -0.3952 0.9186
vn 0.0000 -0.1254 0.9921
vn -0.0001 -0.1252 0.9921
vn -0.0000 -0.1252 0.9921
vn 0.0004 -0.1255 0.9921
vn 0.0001 -0.5739 0.8189
vn 0.0000 -0.1251 0.9921
vn 0.0000 -0.9188 0.3947
vn 0.0000 -0.9454 0.3260
vn 0.0000 -0.9669 0.2550
vn 0.0001 -0.3952 0.9186
vn 0.0001 -0.1252 0.9921
vn -0.0000 -0.5739 0.8189
vn -0.0004 -0.1255 0.9921
g m_a.017_m_a.017_Default_OBJ.023
usemtl Default_OBJ.023
s 1
f 1/1/1 2/2/2 3/3/3
f 2/2/2 1/1/1 4/4/4
f 5/5/5 6/6/4 7/7/1
f 6/6/4 5/5/5 8/8/6
f 9/9/7 10/10/8 11/11/5
f 10/10/8 9/9/7 12/12/9
f 13/13/3 12/12/9 9/9/7
f 12/12/9 13/13/3 14/14/2
f 15/15/10 16/16/11 17/17/12
f 17/17/12 18/18/13 15/15/10
f 19/19/14 20/20/10 21/21/13
f 21/21/13 22/22/15 19/19/14
f 23/23/16 24/24/14 25/25/17
f 25/25/17 26/26/18 23/23/16
f 27/27/11 23/23/16 26/26/18
f 26/26/18 28/28/12 27/27/11
f 29/29/19 30/30/20 31/31/21
f 30/30/20 32/32/22 33/33/22
f 34/34/23 35/35/24 36/36/25
f 34/34/23 36/36/25 31/31/21
f 30/30/20 34/34/23 31/31/21
f 29/29/19 31/31/21 37/37/26
f 38/38/27 39/39/28 40/40/28
f 39/39/28 38/38/27 41/41/29
f 34/34/23 41/41/29 38/38/27
f 41/41/29 34/34/23 30/30/20
f 42/42/21 43/43/20 44/44/19
f 45/45/30 46/46/30 47/47/20
f 48/48/31 49/49/32 50/50/33
f 42/42/21 48/48/31 50/50/33
f 51/51/26 42/42/21 44/44/19
f 42/42/21 50/50/33 43/43/20
f 52/52/27 53/53/28 54/54/28
f 54/54/28 55/55/29 52/52/27
f 50/50/33 52/52/27 55/55/29
f 55/55/29 43/43/20 50/50/33
f 56/56/34 57/57/35 58/58/36
f 59/59/37 60/60/37 57/57/35
f 61/61/38 62/62/39 63/63/40
f 56/56/34 61/61/38 63/63/40
f 56/56/34 63/63/40 57/57/35
f 64/64/41 56/56/34 58/58/36
f 65/65/42 66/66/42 67/67/43
f 68/68/44 67/67/43 66/66/42
f 67/67/43 68/68/44 63/63/40
f 57/57/35 63/63/40 68/68/44
f 69/69/36 70/70/35 71/71/34
f 72/72/45 73/73/46 74/74/46
f 75/75/47 76/76/48 77/77/38
f 75/75/47 77/77/38 71/71/34
f 69/69/36 71/71/34 78/78/41
f 70/70/35 75/75/47 71/71/34
f 79/79/42 80/80/42 81/81/43
f 81/81/43 82/82/44 79/79/42
f 82/82/44 81/81/43 75/75/47
f 75/75/47 70/70/35 82/82/44
