# Blender v2.92.0 OBJ File: ''
# www.blender.org
mtllib stage.mtl
o m_09
v 0.000000 0.000000 0.000000
v 0.796200 14.727701 -6.404998
v 1.087600 14.900301 -5.930697
v 0.000000 0.000000 0.000000
v 1.087600 15.099701 -5.382998
v 0.000000 0.000000 0.000000
v 0.796200 15.272301 -4.908698
v 0.000000 0.000000 0.000000
v 0.291400 15.372001 -4.634798
v 0.000000 0.000000 0.000000
v -0.291400 15.372001 -4.634798
v 0.000000 0.000000 0.000000
v -0.796200 15.272301 -4.908698
v 0.000000 0.000000 0.000000
v -1.087600 15.099701 -5.382998
v 0.000000 0.000000 0.000000
v -1.087600 14.900301 -5.930697
v 0.000000 0.000000 0.000000
v -0.796200 14.727701 -6.404998
v 0.000000 0.000000 0.000000
v -0.291400 14.628001 -6.678897
v 0.000000 0.000000 0.000000
v 0.291400 14.628001 -6.678897
v 0.000000 0.000000 0.000000
vt 0.999500 0.000500
vt 0.999500 0.999500
vt 0.932600 0.999500
vt 0.932600 0.000500
vt 0.749800 0.999500
vt 0.749800 0.000500
vt 0.500000 0.999500
vt 0.500000 0.000500
vt 0.250300 0.999500
vt 0.250300 0.000500
vt 0.067400 0.999500
vt 0.067400 0.000500
vt 0.000500 0.999500
vt 0.000500 0.000500
vt 0.067400 0.999500
vt 0.067400 0.000500
vt 0.250300 0.999500
vt 0.250300 0.000500
vt 0.500000 0.999500
vt 0.500000 0.000500
vt 0.749800 0.999500
vt 0.749800 0.000500
vt 0.932600 0.999500
vt 0.932600 0.000500
vn -0.0000 -0.9377 0.3474
vn 0.7050 -0.3146 -0.6357
vn 0.9634 -0.1569 -0.2175
vn 0.9637 0.0253 0.2657
vn 0.7057 0.1832 0.6844
vn 0.0001 -0.9377 0.3474
vn 0.2584 0.2744 0.9263
vn -0.0001 -0.9377 0.3474
vn 0.2584 0.2744 0.9262
vn -0.2584 0.2744 0.9262
vn -0.2584 0.2744 0.9263
vn -0.7057 0.1832 0.6844
vn -0.9637 0.0253 0.2657
vn -0.9634 -0.1569 -0.2175
vn -0.7050 -0.3146 -0.6357
vn -0.2580 -0.4055 -0.8769
vn 0.2580 -0.4055 -0.8769
g m_09_m_09_Material.012
usemtl Material.012
s 1
f 1/1/1 2/2/2 3/3/3
f 4/4/1 3/3/3 5/5/4
f 6/6/1 5/5/4 7/7/5
f 8/8/6 7/7/5 9/9/7
f 10/10/8 9/9/9 11/11/10
f 12/12/8 11/11/11 13/13/12
f 14/14/1 13/13/12 15/15/13
f 16/16/1 15/15/13 17/17/14
f 18/18/1 17/17/14 19/19/15
f 20/20/6 19/19/15 21/21/16
f 22/22/6 21/21/16 23/23/17
f 24/24/8 23/23/17 2/2/2
o m_08
v 0.000000 0.000000 0.000000
v 6.405000 14.727700 -0.796198
v 6.678900 14.628000 -0.291398
v 0.000000 0.000000 0.000000
v 6.678900 14.628000 0.291402
v 0.000000 0.000000 0.000000
v 6.405000 14.727700 0.796202
v 0.000000 0.000000 0.000000
v 5.930700 14.900300 1.087602
v 0.000000 0.000000 0.000000
v 5.383000 15.099700 1.087602
v 0.000000 0.000000 0.000000
v 4.908700 15.272300 0.796202
v 0.000000 0.000000 0.000000
v 4.634800 15.372000 0.291402
v 0.000000 0.000000 0.000000
v 4.634800 15.372000 -0.291397
v 0.000000 0.000000 0.000000
v 4.908700 15.272300 -0.796197
v 0.000000 0.000000 0.000000
v 5.383000 15.099700 -1.087597
v 0.000000 0.000000 0.000000
v 5.930700 14.900300 -1.087598
v 0.000000 0.000000 0.000000
vt 0.999500 0.000500
vt 0.999500 0.999500
vt 0.932600 0.999500
vt 0.932600 0.000500
vt 0.749800 0.999500
vt 0.749800 0.000500
vt 0.500000 0.999500
vt 0.500000 0.000500
vt 0.250300 0.999500
vt 0.250300 0.000500
vt 0.067400 0.999500
vt 0.067400 0.000500
vt 0.000500 0.999500
vt 0.000500 0.000500
vt 0.067400 0.999500
vt 0.067400 0.000500
vt 0.250300 0.999500
vt 0.250300 0.000500
vt 0.500000 0.999500
vt 0.500000 0.000500
vt 0.749800 0.999500
vt 0.749800 0.000500
vt 0.932600 0.999500
vt 0.932600 0.000500
vn -0.3474 -0.9377 0.0001
vn 0.6357 -0.3146 -0.7050
vn 0.8769 -0.4055 -0.2580
vn 0.8769 -0.4055 0.2580
vn -0.3474 -0.9377 -0.0001
vn 0.6357 -0.3146 0.7050
vn -0.3474 -0.9377 -0.0000
vn 0.2175 -0.1569 0.9634
vn -0.2657 0.0253 0.9637
vn -0.6844 0.1832 0.7057
vn -0.9263 0.2744 0.2584
vn -0.9262 0.2744 0.2584
vn -0.9262 0.2744 -0.2584
vn -0.9263 0.2744 -0.2584
vn -0.6844 0.1832 -0.7057
vn -0.2657 0.0253 -0.9637
vn 0.2175 -0.1569 -0.9634
g m_08_m_08_Material.011
usemtl Material.011
s 1
f 25/25/18 26/26/19 27/27/20
f 28/28/18 27/27/20 29/29/21
f 30/30/22 29/29/21 31/31/23
f 32/32/24 31/31/23 33/33/25
f 34/34/24 33/33/25 35/35/26
f 36/36/24 35/35/26 37/37/27
f 38/38/18 37/37/27 39/39/28
f 40/40/22 39/39/29 41/41/30
f 42/42/22 41/41/31 43/43/32
f 44/44/24 43/43/32 45/45/33
f 46/46/24 45/45/33 47/47/34
f 48/48/24 47/47/34 26/26/19
o m_07
v 0.000000 0.000000 0.000000
v -4.908700 15.272300 -0.796197
v -4.634800 15.372000 -0.291397
v 0.000000 0.000000 0.000000
v -4.634800 15.372000 0.291402
v 0.000000 0.000000 0.000000
v -4.908700 15.272300 0.796202
v 0.000000 0.000000 0.000000
v -5.383000 15.099700 1.087602
v 0.000000 0.000000 0.000000
v -5.930700 14.900300 1.087602
v 0.000000 0.000000 0.000000
v -6.405000 14.727700 0.796202
v 0.000000 0.000000 0.000000
v -6.678900 14.628000 0.291402
v 0.000000 0.000000 0.000000
v -6.678900 14.628000 -0.291398
v 0.000000 0.000000 0.000000
v -6.405000 14.727700 -0.796198
v 0.000000 0.000000 0.000000
v -5.930700 14.900300 -1.087598
v 0.000000 0.000000 0.000000
v -5.383000 15.099700 -1.087597
v 0.000000 0.000000 0.000000
vt 0.999500 0.000500
vt 0.999500 0.999500
vt 0.932600 0.999500
vt 0.932600 0.000500
vt 0.749800 0.999500
vt 0.749800 0.000500
vt 0.500000 0.999500
vt 0.500000 0.000500
vt 0.250300 0.999500
vt 0.250300 0.000500
vt 0.067400 0.999500
vt 0.067400 0.000500
vt 0.000500 0.999500
vt 0.000500 0.000500
vt 0.067400 0.999500
vt 0.067400 0.000500
vt 0.250300 0.999500
vt 0.250300 0.000500
vt 0.500000 0.999500
vt 0.500000 0.000500
vt 0.749800 0.999500
vt 0.749800 0.000500
vt 0.932600 0.999500
vt 0.932600 0.000500
vn 0.3474 -0.9377 -0.0001
vn 0.6844 0.1832 -0.7057
vn 0.9263 0.2744 -0.2584
vn 0.3474 -0.9377 0.0001
vn 0.9262 0.2744 -0.2584
vn 0.9262 0.2744 0.2584
vn 0.9263 0.2744 0.2584
vn 0.6844 0.1832 0.7057
vn 0.3474 -0.9377 0.0000
vn 0.2657 0.0253 0.9637
vn -0.2175 -0.1569 0.9634
vn -0.6357 -0.3146 0.7050
vn -0.8769 -0.4055 0.2580
vn -0.8769 -0.4055 -0.2580
vn -0.6357 -0.3146 -0.7050
vn -0.2175 -0.1569 -0.9634
vn 0.2657 0.0253 -0.9637
g m_07_m_07_Material.010
usemtl Material.010
s 1
f 49/49/35 50/50/36 51/51/37
f 52/52/38 51/51/39 53/53/40
f 54/54/38 53/53/41 55/55/42
f 56/56/43 55/55/42 57/57/44
f 58/58/43 57/57/44 59/59/45
f 60/60/43 59/59/45 61/61/46
f 62/62/35 61/61/46 63/63/47
f 64/64/35 63/63/47 65/65/48
f 66/66/38 65/65/48 67/67/49
f 68/68/43 67/67/49 69/69/50
f 70/70/43 69/69/50 71/71/51
f 72/72/43 71/71/51 50/50/36
o m_06
v 0.000000 0.000000 0.000000
v 0.796200 15.272299 4.908702
v 1.087600 15.099699 5.383002
v 0.000000 0.000000 0.000000
v 1.087600 14.900299 5.930702
v 0.000000 0.000000 0.000000
v 0.796200 14.727699 6.405003
v 0.000000 0.000000 0.000000
v 0.291400 14.627999 6.678902
v 0.000000 0.000000 0.000000
v -0.291400 14.627999 6.678902
v 0.000000 0.000000 0.000000
v -0.796200 14.727699 6.405003
v 0.000000 0.000000 0.000000
v -1.087600 14.900299 5.930702
v 0.000000 0.000000 0.000000
v -1.087600 15.099699 5.383002
v 0.000000 0.000000 0.000000
v -0.796200 15.272299 4.908702
v 0.000000 0.000000 0.000000
v -0.291400 15.371999 4.634802
v 0.000000 0.000000 0.000000
v 0.291400 15.371999 4.634802
v 0.000000 0.000000 0.000000
vt 0.999500 0.000500
vt 0.999500 0.999500
vt 0.932600 0.999500
vt 0.932600 0.000500
vt 0.749800 0.999500
vt 0.749800 0.000500
vt 0.500000 0.999500
vt 0.500000 0.000500
vt 0.250300 0.999500
vt 0.250300 0.000500
vt 0.067400 0.999500
vt 0.067400 0.000500
vt 0.000500 0.999500
vt 0.000500 0.000500
vt 0.067400 0.999500
vt 0.067400 0.000500
vt 0.250300 0.999500
vt 0.250300 0.000500
vt 0.500000 0.999500
vt 0.500000 0.000500
vt 0.749800 0.999500
vt 0.749800 0.000500
vt 0.932600 0.999500
vt 0.932600 0.000500
vn 0.0000 -0.9377 -0.3474
vn 0.7057 0.1832 -0.6844
vn 0.9637 0.0253 -0.2657
vn 0.9634 -0.1569 0.2175
vn 0.7050 -0.3146 0.6357
vn -0.0001 -0.9377 -0.3474
vn 0.2580 -0.4055 0.8769
vn -0.2580 -0.4055 0.8769
vn 0.0001 -0.9377 -0.3474
vn -0.7050 -0.3146 0.6357
vn -0.9634 -0.1569 0.2175
vn -0.9637 0.0253 -0.2657
vn -0.7057 0.1832 -0.6844
vn -0.2584 0.2744 -0.9263
vn -0.2584 0.2744 -0.9262
vn 0.2584 0.2744 -0.9262
vn 0.2584 0.2744 -0.9263
g m_06_m_06_Material.009
usemtl Material.009
s 1
f 73/73/52 74/74/53 75/75/54
f 76/76/52 75/75/54 77/77/55
f 78/78/52 77/77/55 79/79/56
f 80/80/57 79/79/56 81/81/58
f 82/82/57 81/81/58 83/83/59
f 84/84/60 83/83/59 85/85/61
f 86/86/52 85/85/61 87/87/62
f 88/88/52 87/87/62 89/89/63
f 90/90/52 89/89/63 91/91/64
f 92/92/57 91/91/64 93/93/65
f 94/94/60 93/93/66 95/95/67
f 96/96/60 95/95/68 74/74/53
o m_05
v 0.000000 0.000000 0.000000
v 2.008600 20.097799 0.878303
v 2.568300 20.035601 1.028603
v 0.000000 0.000000 0.000000
v 2.975700 19.963900 1.439203
v 0.000000 0.000000 0.000000
v 3.121700 19.901899 2.000003
v 0.000000 0.000000 0.000000
v 2.967100 19.866100 2.560903
v 0.000000 0.000000 0.000000
v 2.553400 19.866301 2.971403
v 0.000000 0.000000 0.000000
v 1.991400 19.902201 3.121703
v 0.000000 0.000000 0.000000
v 1.431700 19.964399 2.971403
v 0.000000 0.000000 0.000000
v 1.024300 20.036100 2.560903
v 0.000000 0.000000 0.000000
v 0.878300 20.098101 2.000003
v 0.000000 0.000000 0.000000
v 1.032900 20.133900 1.439203
v 0.000000 0.000000 0.000000
v 1.446600 20.133699 1.028603
v 0.000000 0.000000 0.000000
vt 0.999500 0.000500
vt 0.999500 0.999500
vt 0.932600 0.999500
vt 0.932600 0.000500
vt 0.749800 0.999500
vt 0.749800 0.000500
vt 0.500000 0.999500
vt 0.500000 0.000500
vt 0.250300 0.999500
vt 0.250300 0.000500
vt 0.067400 0.999500
vt 0.067400 0.000500
vt 0.000500 0.999500
vt 0.000500 0.000500
vt 0.067400 0.999500
vt 0.067400 0.000500
vt 0.250300 0.999500
vt 0.250300 0.000500
vt 0.500000 0.999500
vt 0.500000 0.000500
vt 0.749800 0.999500
vt 0.749800 0.000500
vt 0.932600 0.999500
vt 0.932600 0.000500
vn -0.0929 -0.9913 -0.0931
vn 0.0038 0.0431 -0.9991
vn 0.4995 -0.0196 -0.8661
vn 0.8597 -0.0919 -0.5025
vn 0.8597 -0.0920 -0.5025
vn 0.9880 -0.1544 -0.0060
vn 0.8504 -0.1902 0.4905
vn -0.0930 -0.9913 -0.0930
vn 0.4840 -0.1900 0.8542
vn -0.0928 -0.9913 -0.0931
vn -0.0135 -0.1536 0.9880
vn -0.5090 -0.0909 0.8559
vn -0.8699 -0.0185 0.4930
vn -0.8698 -0.0185 0.4930
vn -0.9990 0.0440 -0.0038
vn -0.8617 0.0800 -0.5011
vn -0.4946 0.0797 -0.8655
vn 0.0038 0.0433 -0.9991
g m_05_m_05_Material.008
usemtl Material.008
s 1
f 97/97/69 98/98/70 99/99/71
f 100/100/69 99/99/71 101/101/72
f 102/102/69 101/101/73 103/103/74
f 104/104/69 103/103/74 105/105/75
f 106/106/76 105/105/75 107/107/77
f 108/108/78 107/107/77 109/109/79
f 110/110/78 109/109/79 111/111/80
f 112/112/69 111/111/80 113/113/81
f 114/114/69 113/113/82 115/115/83
f 116/116/69 115/115/83 117/117/84
f 118/118/76 117/117/84 119/119/85
f 120/120/69 119/119/85 98/98/86
o m_04
v 0.000000 0.000000 0.000000
v -1.991500 19.902201 -3.121697
v -1.431700 19.964399 -2.971397
v 0.000000 0.000000 0.000000
v -1.024300 20.036100 -2.560797
v 0.000000 0.000000 0.000000
v -0.878300 20.098101 -1.999997
v 0.000000 0.000000 0.000000
v -1.032900 20.133900 -1.439097
v 0.000000 0.000000 0.000000
v -1.446600 20.133699 -1.028597
v 0.000000 0.000000 0.000000
v -2.008600 20.097799 -0.878297
v 0.000000 0.000000 0.000000
v -2.568300 20.035601 -1.028597
v 0.000000 0.000000 0.000000
v -2.975700 19.963900 -1.439097
v 0.000000 0.000000 0.000000
v -3.121700 19.901899 -1.999997
v 0.000000 0.000000 0.000000
v -2.967100 19.866100 -2.560797
v 0.000000 0.000000 0.000000
v -2.553400 19.866301 -2.971397
v 0.000000 0.000000 0.000000
vt 0.999500 0.000500
vt 0.999500 0.999500
vt 0.932600 0.999500
vt 0.932600 0.000500
vt 0.749800 0.999500
vt 0.749800 0.000500
vt 0.500000 0.999500
vt 0.500000 0.000500
vt 0.250300 0.999500
vt 0.250300 0.000500
vt 0.067400 0.999500
vt 0.067400 0.000500
vt 0.000500 0.999500
vt 0.000500 0.000500
vt 0.067400 0.999500
vt 0.067400 0.000500
vt 0.250300 0.999500
vt 0.250300 0.000500
vt 0.500000 0.999500
vt 0.500000 0.000500
vt 0.749800 0.999500
vt 0.749800 0.000500
vt 0.932600 0.999500
vt 0.932600 0.000500
vn 0.0928 -0.9913 0.0931
vn 0.0135 -0.1536 -0.9880
vn 0.5090 -0.0909 -0.8559
vn 0.0930 -0.9913 0.0931
vn 0.8698 -0.0185 -0.4930
vn 0.0929 -0.9913 0.0931
vn 0.9990 0.0440 0.0038
vn 0.8617 0.0800 0.5011
vn 0.4946 0.0797 0.8655
vn -0.0038 0.0433 0.9991
vn -0.0038 0.0431 0.9991
vn -0.4995 -0.0196 0.8661
vn -0.8597 -0.0919 0.5025
vn 0.0929 -0.9913 0.0930
vn -0.8597 -0.0920 0.5025
vn -0.9880 -0.1544 0.0060
vn -0.8504 -0.1902 -0.4905
vn 0.0930 -0.9913 0.0930
vn -0.4840 -0.1900 -0.8542
g m_04_m_04_Material.007
usemtl Material.007
s 1
f 121/121/87 122/122/88 123/123/89
f 124/124/90 123/123/89 125/125/91
f 126/126/92 125/125/91 127/127/93
f 128/128/92 127/127/93 129/129/94
f 130/130/90 129/129/94 131/131/95
f 132/132/92 131/131/95 133/133/96
f 134/134/92 133/133/97 135/135/98
f 136/136/92 135/135/98 137/137/99
f 138/138/100 137/137/101 139/139/102
f 140/140/92 139/139/102 141/141/103
f 142/142/104 141/141/103 143/143/105
f 144/144/87 143/143/105 122/122/88
o m_03
v 0.000000 0.000000 0.000000
v 1.991400 19.902201 -3.121697
v 2.553400 19.866301 -2.971397
v 0.000000 0.000000 0.000000
v 2.967100 19.866100 -2.560797
v 0.000000 0.000000 0.000000
v 3.121700 19.901899 -1.999997
v 0.000000 0.000000 0.000000
v 2.975700 19.963900 -1.439097
v 0.000000 0.000000 0.000000
v 2.568300 20.035601 -1.028597
v 0.000000 0.000000 0.000000
v 2.008500 20.097799 -0.878297
v 0.000000 0.000000 0.000000
v 1.446600 20.133699 -1.028597
v 0.000000 0.000000 0.000000
v 1.032900 20.133900 -1.439097
v 0.000000 0.000000 0.000000
v 0.878300 20.098101 -1.999997
v 0.000000 0.000000 0.000000
v 1.024300 20.036100 -2.560797
v 0.000000 0.000000 0.000000
v 1.431700 19.964399 -2.971397
v 0.000000 0.000000 0.000000
vt 0.999500 0.000500
vt 0.999500 0.999500
vt 0.932600 0.999500
vt 0.932600 0.000500
vt 0.749800 0.999500
vt 0.749800 0.000500
vt 0.500000 0.999500
vt 0.500000 0.000500
vt 0.250300 0.999500
vt 0.250300 0.000500
vt 0.067400 0.999500
vt 0.067400 0.000500
vt 0.000500 0.999500
vt 0.000500 0.000500
vt 0.067400 0.999500
vt 0.067400 0.000500
vt 0.250300 0.999500
vt 0.250300 0.000500
vt 0.500000 0.999500
vt 0.500000 0.000500
vt 0.749800 0.999500
vt 0.749800 0.000500
vt 0.932600 0.999500
vt 0.932600 0.000500
vn -0.0928 -0.9913 0.0931
vn -0.0135 -0.1536 -0.9880
vn 0.4840 -0.1900 -0.8542
vn -0.0930 -0.9913 0.0930
vn 0.8504 -0.1902 -0.4905
vn -0.0929 -0.9913 0.0931
vn 0.9880 -0.1544 0.0060
vn 0.8597 -0.0919 0.5025
vn 0.4995 -0.0196 0.8661
vn 0.0038 0.0433 0.9991
vn -0.4946 0.0797 0.8655
vn -0.8617 0.0800 0.5011
vn -0.9990 0.0440 0.0038
vn -0.8698 -0.0185 -0.4930
vn -0.5090 -0.0909 -0.8559
g m_03_m_03_Material.006
usemtl Material.006
s 1
f 145/145/106 146/146/107 147/147/108
f 148/148/109 147/147/108 149/149/110
f 150/150/111 149/149/110 151/151/112
f 152/152/111 151/151/112 153/153/113
f 154/154/111 153/153/113 155/155/114
f 156/156/111 155/155/114 157/157/115
f 158/158/111 157/157/115 159/159/116
f 160/160/109 159/159/116 161/161/117
f 162/162/111 161/161/117 163/163/118
f 164/164/111 163/163/118 165/165/119
f 166/166/111 165/165/119 167/167/120
f 168/168/106 167/167/120 146/146/107
o m_02
v 0.000000 0.000000 0.000000
v -2.008600 20.097799 0.878303
v -1.446600 20.133699 1.028603
v 0.000000 0.000000 0.000000
v -1.032900 20.133900 1.439203
v 0.000000 0.000000 0.000000
v -0.878300 20.098101 2.000003
v 0.000000 0.000000 0.000000
v -1.024300 20.036100 2.560903
v 0.000000 0.000000 0.000000
v -1.431700 19.964399 2.971403
v 0.000000 0.000000 0.000000
v -1.991500 19.902201 3.121703
v 0.000000 0.000000 0.000000
v -2.553400 19.866301 2.971403
v 0.000000 0.000000 0.000000
v -2.967100 19.866100 2.560903
v 0.000000 0.000000 0.000000
v -3.121700 19.901899 2.000003
v 0.000000 0.000000 0.000000
v -2.975700 19.963900 1.439203
v 0.000000 0.000000 0.000000
v -2.568300 20.035601 1.028603
v 0.000000 0.000000 0.000000
vt 0.999500 0.000500
vt 0.999500 0.999500
vt 0.932600 0.999500
vt 0.932600 0.000500
vt 0.749800 0.999500
vt 0.749800 0.000500
vt 0.500000 0.999500
vt 0.500000 0.000500
vt 0.250300 0.999500
vt 0.250300 0.000500
vt 0.067400 0.999500
vt 0.067400 0.000500
vt 0.000500 0.999500
vt 0.000500 0.000500
vt 0.067400 0.999500
vt 0.067400 0.000500
vt 0.250300 0.999500
vt 0.250300 0.000500
vt 0.500000 0.999500
vt 0.500000 0.000500
vt 0.749800 0.999500
vt 0.749800 0.000500
vt 0.932600 0.999500
vt 0.932600 0.000500
vn 0.0929 -0.9913 -0.0931
vn -0.0038 0.0433 -0.9991
vn 0.4946 0.0797 -0.8655
vn 0.0930 -0.9913 -0.0930
vn 0.8617 0.0800 -0.5011
vn 0.9990 0.0440 -0.0038
vn 0.8698 -0.0185 0.4930
vn 0.8699 -0.0185 0.4930
vn 0.5090 -0.0909 0.8559
vn 0.0928 -0.9913 -0.0931
vn 0.0135 -0.1536 0.9880
vn -0.4840 -0.1900 0.8542
vn -0.8504 -0.1902 0.4905
vn -0.9880 -0.1544 -0.0060
vn -0.8597 -0.0919 -0.5025
vn -0.4995 -0.0196 -0.8661
g m_02_m_02_Material.005
usemtl Material.005
s 1
f 169/169/121 170/170/122 171/171/123
f 172/172/124 171/171/123 173/173/125
f 174/174/121 173/173/125 175/175/126
f 176/176/121 175/175/126 177/177/127
f 178/178/121 177/177/128 179/179/129
f 180/180/130 179/179/129 181/181/131
f 182/182/130 181/181/131 183/183/132
f 184/184/124 183/183/132 185/185/133
f 186/186/121 185/185/133 187/187/134
f 188/188/121 187/187/134 189/189/135
f 190/190/121 189/189/135 191/191/136
f 192/192/121 191/191/136 170/170/122
